<svg xmlns="http://www.w3.org/2000/svg" xmlns:xlink="http://www.w3.org/1999/xlink" version="1.1" width="1000" height="1000" viewBox="0 0 1000 1000" xml:space="preserve">
<desc>Created with Fabric.js 3.5.0</desc>
<defs>
</defs>
<rect x="0" y="0" width="100%" height="100%" fill="#ffffff"/>
<g transform="matrix(-0.8909 0 0 0.8909 500.0264 500.0186)" id="656865">
<g style="" vector-effect="non-scaling-stroke">
		<g transform="matrix(1.0667 0 0 1.0667 -527.1252 362.7183)" id="rect4339">
<rect style="stroke: none; stroke-width: 0.3964; stroke-dasharray: none; stroke-linecap: butt; stroke-dashoffset: 0; stroke-linejoin: miter; stroke-miterlimit: 4; is-custom-font: none; font-file-url: none; fill: rgb(0,0,0); fill-rule: nonzero; opacity: 0; visibility: hidden;" x="-31.802" y="-31.802" rx="1.8908" ry="1.8908" width="63.604" height="63.604"/>
</g>
		<g transform="matrix(0.6918 0 0 0.6918 -341.6106 98.7623)" id="path4377">
<path style="stroke: none; stroke-width: 1; stroke-dasharray: none; stroke-linecap: butt; stroke-dashoffset: 0; stroke-linejoin: miter; stroke-miterlimit: 4; is-custom-font: none; font-file-url: none; fill: rgb(14,35,46); fill-rule: evenodd; opacity: 1; visibility: hidden;" transform=" translate(294.965, -523.04)" d="m -197.99 528.04 l 0 -10 c -64.65 1.6667 -129.3 3.3333 -193.95 5 c 64.65 1.6667 129.3 3.3333 193.95 5 z" stroke-linecap="round"/>
</g>
		<g transform="matrix(0.6918 0 0 0.6918 -382.0307 81.3052)" id="path4379">
<path style="stroke: none; stroke-width: 1; stroke-dasharray: none; stroke-linecap: butt; stroke-dashoffset: 0; stroke-linejoin: miter; stroke-miterlimit: 4; is-custom-font: none; font-file-url: none; fill: rgb(14,35,46); fill-rule: evenodd; opacity: 1; visibility: hidden;" transform=" translate(353.3883, -497.8068)" d="m -222.57 503.79 l 0.66672 -9.9778 c -87.783 -4.1873 -175.4 -0.7184 -262.97 0.94827 c 87.576 1.6667 175.33 1.5393 262.31 9.0295 z" stroke-linecap="round"/>
</g>
		<g transform="matrix(0.6918 0 0 0.6918 -405.9075 59.6254)" id="path4381">
<path style="stroke: none; stroke-width: 1; stroke-dasharray: none; stroke-linecap: butt; stroke-dashoffset: 0; stroke-linejoin: miter; stroke-miterlimit: 4; is-custom-font: none; font-file-url: none; fill: rgb(14,35,46); fill-rule: evenodd; opacity: 1; visibility: hidden;" transform=" translate(387.9, -466.47)" d="m -242.44 471.47 l 0 -10 c -96.975 1.6667 -193.95 3.3333 -290.92 5 c 96.975 1.6667 193.95 3.3333 290.92 5 z" stroke-linecap="round"/>
</g>
		<g transform="matrix(0.6918 0 0 0.6918 -273.0513 1.4952)" id="path4383">
<path style="stroke: none; stroke-width: 1; stroke-dasharray: none; stroke-linecap: butt; stroke-dashoffset: 0; stroke-linejoin: miter; stroke-miterlimit: 4; is-custom-font: none; font-file-url: none; fill: rgb(14,35,46); fill-rule: evenodd; opacity: 1; visibility: hidden;" transform=" translate(195.865, -382.4476)" d="m -60.112 410.84 l -0.99504 -9.9504 c -44.162 4.9816 -88.627 7.5724 -133.13 7.8563 l -0.00001 0 c -45.714 1.3698 -91.526 -0.14406 -136.78 -6.932 l 0.00002 0 c 21.356 -4.4546 41.275 -13.412 60.484 -23.429 c 17.633 -9.4211 34.61 -19.938 52.349 -29.089 c -17.963 8.7004 -35.236 18.804 -53.043 27.748 c -19.407 9.9942 -39.385 19.42 -60.398 24.79 c 45.286 7.8572 91.346 11.591 137.35 13.536 c 0 0 0.00001 0 0.00002 0.00001 c 44.729 0.8432 89.538 -0.63237 134.17 -4.5302 z" stroke-linecap="round"/>
</g>
		<g transform="matrix(0.6918 0 0 0.6918 -87.2759 -5.0027)" id="path4385">
<path style="stroke: none; stroke-width: 1; stroke-dasharray: none; stroke-linecap: butt; stroke-dashoffset: 0; stroke-linejoin: miter; stroke-miterlimit: 4; is-custom-font: none; font-file-url: none; fill: rgb(14,35,46); fill-rule: evenodd; opacity: 1; visibility: hidden;" transform=" translate(-72.671, -373.0542)" d="m -262.52 360.46 l -0.23902 9.9971 c 112.35 1.8489 224.61 -0.055 336.84 0.43715 c 111.49 0.49 223.09 3.27 334.02 14.76 c -110.75 -13.14 -222.42 -17.6 -333.96 -19.75 c -112.28 -2.16 -224.57 -1.93 -336.66 -5.45 z" stroke-linecap="round"/>
</g>
		<g transform="matrix(0.6918 0 0 0.6918 -99.3279 -35.092)" id="path4387">
<path style="stroke: none; stroke-width: 1; stroke-dasharray: none; stroke-linecap: butt; stroke-dashoffset: 0; stroke-linejoin: miter; stroke-miterlimit: 4; is-custom-font: none; font-file-url: none; fill: rgb(14,35,46); fill-rule: evenodd; opacity: 1; visibility: hidden;" transform=" translate(-55.2499, -329.5648)" d="m -265.27 357.17 l 5.2589 8.5055 c 66.648 -41.864 140.95 -71.657 218.23 -87.587 c 0.000012 0 0.000024 -0.00001 0.000035 -0.00001 c 71.912 -14.827 145.959995 -18.127 219.569995 -15.9 c 21.378 -1.0901 43.013 2.6558 62.853 10.846 c 0.00001 0.00001 0.00003 0.00001 0.00004 0.00002 c 19.16001 7.9093 36.631 19.692 52.419 33.291 c 16.157 13.919 30.646 29.731 44.299 46.185 c 13.3 16.03 25.79 32.731 38.413 49.318 c -12.389 -16.762 -24.642 -33.635 -37.734 -49.873 c -13.438 -16.667 -27.747 -32.728 -43.809 -46.968 c -15.697 -13.918 -33.185 -26.07 -52.557 -34.401 l -0.00001 0 c -20.051 -8.6221 -42.027 -12.768 -63.896 -11.962 c -73.748 -3.2777 -148.139995 -1.0028 -220.859995 12.924 c -0.000012 0.00001 -0.000023 0.00001 -0.000035 0.00001 c -78.286 14.998 -153.93 44.069 -222.19 85.619 z" stroke-linecap="round"/>
</g>
		<g transform="matrix(0.6918 0 0 0.6918 98.1412 -46.4338)" id="path4389">
<path style="stroke: none; stroke-width: 1; stroke-dasharray: none; stroke-linecap: butt; stroke-dashoffset: 0; stroke-linejoin: miter; stroke-miterlimit: 4; is-custom-font: none; font-file-url: none; fill: rgb(14,35,46); fill-rule: evenodd; opacity: 1; visibility: hidden;" transform=" translate(-340.6695, -313.1699)" d="m 437.54 361.9 l 5.3945 -8.4202 c -63.8 -38.95 -131.82 -72.92 -204.53 -89.04 c 71.916 19.357 137.57 56.069 199.15 97.454 z" stroke-linecap="round"/>
</g>
		<g transform="matrix(0.6918 0 0 0.6918 99.6015 -31.8914)" id="path4391">
<path style="stroke: none; stroke-width: 1; stroke-dasharray: none; stroke-linecap: butt; stroke-dashoffset: 0; stroke-linejoin: miter; stroke-miterlimit: 4; is-custom-font: none; font-file-url: none; fill: rgb(14,35,46); fill-rule: evenodd; opacity: 1; visibility: hidden;" transform=" translate(-342.7803, -334.1912)" d="m 441.77 381.79 l 5.3946 -8.4201 c -2.0938 -0.87143 -3.1523 -1.1254 -3.1462 -0.82554 c -0.61869 0.0384 -1.0489 0.0986 -1.2919 0.16063 c -0.90712 0.1886 -1.6593 0.40764 -2.2688 0.60553 c -2.2291 0.69949 -4.3348 1.4888 -6.3546 2.2612 l -0.00001 0 c -6.7779 2.5832 -13.428 5.36 -20.027 8.149 c 0 0 -0.00001 0 -0.00001 0.00001 c -16.405 7.8168 -32.899 15.838 -49.466 24.068 l -0.00001 0 c -4.5626 -16.215 -11.767 -31.568 -20.798 -45.821 c -9.4927 -14.329 -20.502 -27.526 -32.287 -39.879 c -22.709 -23.801 -48.279 -44.399 -73.129 -65.727 c 24.095 22.178 48.958 43.677 70.62 68.038 c 11.245 12.645 21.643 26.026 30.427 40.354 l 0 0.00001 c 9.482 14.775 17.496 30.637 23.256 47.267 c 0 -0.00001 0.00001 -0.00001 0.00001 -0.00001 c 17.891 -7.0846 36.134 -13.752 54.712 -20.008 c 0 0 0.00001 0 0.00001 -0.00001 c 6.6694 -2.5483 13.312 -5.0561 19.984 -7.3351 l 0.00001 -0.00001 c 2.0241 -0.68955 3.9708 -1.3481 5.866 -1.8654 c 0.56857 -0.14966 0.99956 -0.26946 1.2997 -0.30682 c 0.11222 -0.004 0.04 -0.004 -0.21752 0.0231 c 0.20158 0.29348 -0.64425 0.0271 -2.5734 -0.73889 z" stroke-linecap="round"/>
</g>
		<g transform="matrix(0.6918 0 0 0.6918 23.1836 109.9423)" id="path4393">
<path style="stroke: none; stroke-width: 1; stroke-dasharray: none; stroke-linecap: butt; stroke-dashoffset: 0; stroke-linejoin: miter; stroke-miterlimit: 4; is-custom-font: none; font-file-url: none; fill: rgb(14,35,46); fill-rule: evenodd; opacity: 1; visibility: hidden;" transform=" translate(-232.33, -539.2)" d="m 492.95 544.2 l 0 -10 l -521.24 5 l 521.24 5 z" stroke-linecap="round"/>
</g>
		<g transform="matrix(0.6918 0 0 0.6918 -383.9966 -36.5573)" id="path4395">
<path style="stroke: none; stroke-width: 1; stroke-dasharray: none; stroke-linecap: butt; stroke-dashoffset: 0; stroke-linejoin: miter; stroke-miterlimit: 4; is-custom-font: none; font-file-url: none; fill: rgb(14,35,46); fill-rule: evenodd; opacity: 1; visibility: hidden;" transform=" translate(356.2344, -327.4473)" d="m -341.54 408.06 l 9.657 2.5968 c 3.1353 -13.065 4.0332 -26.335 4.0151 -39.379 c -0.31965 -13.698 -1.4021 -27.072 -1.8971 -40.224 c -11.382 -7.0238 -21.717 -15.653 -30.891 -25.232 c -7.3955 -7.5054 -14.268 -15.881 -22.194 -23.418 c -0.24202 -12.602 -0.53391 -25.324 -0.87561 -38.166 c -0.3417 12.843 -0.63355 25.806 -0.87561 38.89 c 7.4132 7.8551 13.857 16.752 21.157 25.254 c 8.5625 9.7399 18.295 18.351 29.189 25.169 l 0 0.00001 c -0.49495 12.765 -0.56418 25.311 -1.5568 37.521 c -0.68608 12.671 -2.1834 25.212 -5.728 36.989 z" stroke-linecap="round"/>
</g>
		<g transform="matrix(0.6918 0 0 0.6918 -361.4792 -63.9004)" id="path4397">
<path style="stroke: none; stroke-width: 1; stroke-dasharray: none; stroke-linecap: butt; stroke-dashoffset: 0; stroke-linejoin: miter; stroke-miterlimit: 4; is-custom-font: none; font-file-url: none; fill: rgb(14,35,46); fill-rule: evenodd; opacity: 1; visibility: hidden;" transform=" translate(323.6846, -287.9221)" d="m -402.03 259.87 l -4.0614 9.1381 c 39.418 16.699 79.131 32.196 118.91 46.966 c 6.0079 -1.0936 11.529 -3.5539 16.371 -6.7259 c 4.593 -3.2001 8.6089 -7.0045 12.28 -10.983 l 0 -0.00001 c 3.4663 -3.7489 6.6392 -7.6586 9.8118 -11.481 c 2.4418 -3.7726 4.7326 -7.4431 7.4407 -10.409 c -25.792 -10.412 -53.305 -13.64 -80.324 -14.213 l -0.00002 0 c -27.553 -0.25123 -54.979 1.8835 -82.461 2.2778 c 27.483 0.39432 55.008 -0.95214 82.406 0.0875 l 0.00002 0 c 26.758 0.68993 53.642 3.3231 78.058 12.221 c -3.4229 2.0501 -6.23 4.5239 -8.9357 6.7725 c -3.3087 3.7582 -6.5328 7.5109 -9.9432 10.986 c 0 0 0 0.00001 -0.00001 0.00001 c -3.6311 3.6928 -7.4441 7.1234 -11.633 9.843 c -3.8848 2.7109 -8.1265 4.7661 -12.478 5.5297 c -39.029 -15.85 -77.598 -32.369 -115.44 -50.009 z" stroke-linecap="round"/>
</g>
		<g transform="matrix(0.6918 0 0 0.6918 -346.4588 -28.8505)" id="path4399">
<path style="stroke: none; stroke-width: 1; stroke-dasharray: none; stroke-linecap: butt; stroke-dashoffset: 0; stroke-linejoin: miter; stroke-miterlimit: 4; is-custom-font: none; font-file-url: none; fill: rgb(14,35,46); fill-rule: evenodd; opacity: 1; visibility: hidden;" transform=" translate(301.9768, -338.5852)" d="m -299.1 384.44 l 8.2634 -5.6316 c -4.5273 -5.902 -8.4096 -12.321 -11.283 -19.198 c -2.6305 -6.2646 -4.4325 -12.97 -5.6132 -19.837 c -2.6341 -15.291 -2.5406 -31.252 -3.3975 -47.043 c -0.85694 15.791 -2.6787 31.544 -1.7105 47.629 l 0 0.00001 c 0.44256 7.2712 1.5773 14.583 3.6891 21.736 c 2.3284 7.8413 5.7879 15.346 10.052 22.344 z" stroke-linecap="round"/>
</g>
		<g transform="matrix(0.6918 0 0 0.6918 -94.5625 52.2487)" id="path4401">
<path style="stroke: none; stroke-width: 1; stroke-dasharray: none; stroke-linecap: butt; stroke-dashoffset: 0; stroke-linejoin: miter; stroke-miterlimit: 4; is-custom-font: none; font-file-url: none; fill: rgb(14,35,46); fill-rule: evenodd; opacity: 1; visibility: hidden;" transform=" translate(-62.1429, -455.8105)" d="m -364.61 442.05 l 9.9936 0.35704 c 0.18691 -5.7959 1.0304 -11.515 2.8436 -16.832 c 1.4656 -4.3571 3.6193 -8.5254 6.2667 -12.387 c 0.00001 0 0.00001 -0.00001 0.00001 -0.00001 c 4.1529 -6.7132 10.361 -12.574 16.01 -19.634 c 88.881 -2.7024 178.12 -4.7806 267.73 -5.1675 l 0.000047 0 c 24.803 25.556 51.08 49.746 78.655 72.446 c 26.604 21.693 54.288 42.097 83.470003 60.09 c 0.00002 0.00001 0.00003 0.00002 0.00004 0.00003 c 64.643 5.9808 129.48 7.6831 194.17 7.8255 c 64.81 0.11763 129.59 -1.3187 194.38 -1.667 c -64.793 -0.34821 -129.6 0.39174 -194.37 -0.42228 c -64.498 -0.78637 -128.94 -3.0782 -192.88 -9.5816 c -28.570003 -18.102 -55.558003 -38.573 -81.416003 -60.304 c -27.812 -23.144 -54.439 -47.8 -79.708 -73.84 l -0.000046 0 c -90.897001 -0.38697 -182.140001 0.93975 -273.710001 2.9137 c -6.3123 6.8951 -13.913 13.463 -20.255 21.839 c -0.00001 0.00001 -0.00002 0.00003 -0.00003 0.00004 c -3.1643 4.4944 -5.7708 9.4302 -7.6213 14.696 c -2.2263 6.4052 -3.3161 13.073 -3.5719 19.668 z" stroke-linecap="round"/>
</g>
		<g transform="matrix(0.6918 0 0 0.6918 125.5619 52.7079)" id="path4403">
<path style="stroke: none; stroke-width: 1; stroke-dasharray: none; stroke-linecap: butt; stroke-dashoffset: 0; stroke-linejoin: miter; stroke-miterlimit: 4; is-custom-font: none; font-file-url: none; fill: rgb(14,35,46); fill-rule: evenodd; opacity: 1; visibility: hidden;" transform=" translate(-380.3013, -456.474)" d="m 403.11 526.89 l 9.9923 0.39302 c 0.18736 -28.057 -8.1922 -55.191 -20.882 -79.387 c -11.958 -22.827 -27.521 -43.405 -44.723 -62.231 c 15.973 19.879 30.099 41.29 40.353 64.347 c 10.842 24.416 17.195 50.969 15.26 76.878 z" stroke-linecap="round"/>
</g>
		<g transform="matrix(0.6918 0 0 0.6918 291.3096 27.3052)" id="path4405">
<path style="stroke: none; stroke-width: 1; stroke-dasharray: none; stroke-linecap: butt; stroke-dashoffset: 0; stroke-linejoin: miter; stroke-miterlimit: 4; is-custom-font: none; font-file-url: none; fill: rgb(14,35,46); fill-rule: evenodd; opacity: 1; visibility: hidden;" transform=" translate(-619.8871, -419.7553)" d="m 812.85 474.22 l 6.7041 -7.4199 c -26.036 -22.964 -55.754 -41.421 -87.266 -55.468 c -31.768 -14.159 -65.236 -23.981 -99.148 -30.801 c -34.902 -7.0205 -70.308 -10.926 -105.74 -13.047 l -0.00002 0 c -35.703 -2.1383 -71.459 -2.4561 -107.18 -2.0301 c 35.721 0.42597 71.441 1.5966 107 4.5794 l 0.00001 0 c 35.284 2.9607 70.428 7.6888 104.86 15.478 c 0 0 0.00001 0.00001 0.00002 0.00001 c 33.448 7.5688 66.249 18.05 97.052 32.685 c 30.539 14.507 59.075 33.194 83.721 56.023 z" stroke-linecap="round"/>
</g>
		<g transform="matrix(0.6918 0 0 0.6918 -233.3888 84.5698)" id="path4409">
<path style="stroke: rgb(73,57,57); stroke-width: 0.4198; stroke-dasharray: none; stroke-linecap: round; stroke-dashoffset: 0; stroke-linejoin: round; stroke-miterlimit: 4; is-custom-font: none; font-file-url: none; fill: rgb(14,35,46); fill-rule: nonzero; opacity: 1; visibility: hidden;" transform=" translate(138.5372, -502.5285)" d="m -135.01 575.65 c -54.038 0 -97.847 -41.188 -97.847 -91.993 c 0 -20.293 6.9946 -39.038 18.833 -54.25 c -4.538 10.604 -7.0555 22.184 -7.0555 34.315 c 0 50.805 43.809 91.993 97.847 91.993 c 32.454 0 61.214 -14.871 79.015 -37.743 c -14.468 33.807 -49.657 57.678 -90.792 57.678 z" stroke-linecap="round"/>
</g>
		<g transform="matrix(0.6918 0 0 0.6918 275.5493 100.633)" id="path4413">
<path style="stroke: rgb(73,57,57); stroke-width: 0.4198; stroke-dasharray: none; stroke-linecap: round; stroke-dashoffset: 0; stroke-linejoin: round; stroke-miterlimit: 4; is-custom-font: none; font-file-url: none; fill: rgb(14,35,46); fill-rule: nonzero; opacity: 1; visibility: hidden;" transform=" translate(-597.1017, -525.7464)" d="m 572.84 584.37 c 52.197 13.986 105.17 -14.46 118.32 -63.534 c 5.2522 -19.601 3.3475 -39.518 -4.1504 -57.275 c 1.6388 11.418 1.0734 23.254 -2.0664 34.972 c -13.149 49.074 -66.126 77.52 -118.32 63.534 c -31.348 -8.3997 -55.28 -30.208 -66.553 -56.908 c 5.2247 36.4 33.037 68.564 72.77 79.211 z" stroke-linecap="round"/>
</g>
		<g transform="matrix(0.6918 0 0 0.6918 -29.7101 -38.272)" id="path4415">
<path style="stroke: none; stroke-width: 1; stroke-dasharray: none; stroke-linecap: butt; stroke-dashoffset: 0; stroke-linejoin: miter; stroke-miterlimit: 4; is-custom-font: none; font-file-url: none; fill: rgb(14,35,46); fill-rule: evenodd; opacity: 1; visibility: hidden;" transform=" translate(-155.8651, -324.967)" d="m 170.57 361.6 l 6.3502 7.725 c 4.3338 -3.7726 8.472 -8.3724 11.215 -14.034 c 2.0321 -4.2372 2.8577 -9.0832 2.1002 -13.845 c -0.84635 -4.6682 -2.9615 -8.7283 -5.5538 -12.123 c -3.0373 -4.0264 -6.6169 -7.4035 -10.299 -10.441 c -8.7233 -7.2142 -18.228 -13.028 -27.483 -19.036 c -9.0077 -5.8631 -18.057 -11.667 -25.682 -19.237 c 6.9631 8.1825 15.626 14.862 24.114 21.442 c 8.7536 6.7992 17.678 13.34 25.377 20.911 l 0.00001 0 c 3.2377 3.1932 6.2352 6.5121 8.4896 10.148 l 0.00001 0.00001 c 1.86 3.0516 3.2619 6.2519 3.4531 9.3493 c 0.2794 2.9993 -0.62993 6.1477 -2.191 8.8672 c -2.2142 3.9364 -5.8788 7.186 -9.8902 10.273 z" stroke-linecap="round"/>
</g>
		<g transform="matrix(0.6918 0 0 0.6918 -60.7096 -64.5567)" id="path4417">
<path style="stroke: none; stroke-width: 1; stroke-dasharray: none; stroke-linecap: butt; stroke-dashoffset: 0; stroke-linejoin: miter; stroke-miterlimit: 4; is-custom-font: none; font-file-url: none; fill: rgb(14,35,46); fill-rule: evenodd; opacity: 1; visibility: hidden;" transform=" translate(-111.0606, -286.9723)" d="m 3.9289 283.69 l 0.22347 9.9975 c 71.614 -3.2691 142.6 -11.413 214.04 -13.08 c -71.441 -1.6667 -143.03 3.1586 -214.26 3.0825 z" stroke-linecap="round"/>
</g>
		<g transform="matrix(0.6918 0 0 0.6918 -114.6701 -39.3698)" id="path4419">
<path style="stroke: none; stroke-width: 1; stroke-dasharray: none; stroke-linecap: butt; stroke-dashoffset: 0; stroke-linejoin: miter; stroke-miterlimit: 4; is-custom-font: none; font-file-url: none; fill: rgb(14,35,46); fill-rule: evenodd; opacity: 1; visibility: hidden;" transform=" translate(-33.0604, -323.3801)" d="m 51.617 364.77 l 9.904 1.3821 c 0.78457 -8.1068 0.86302 -16.469 -0.55292 -24.703 c -1.3633 -7.829 -4.224 -15.325 -8.4017 -21.952 l -0.000001 0 c -4.9244 -7.7649 -11.363 -14.23 -18.307 -19.789 l -0.000004 0 c -9.387 -7.5238 -19.695 -13.602 -30.218 -19.1 c 9.9692 6.4483 19.62 13.428 28.037 21.578 l 0.000002 0 c 6.2097 6.0204 11.737 12.705 15.504 20.158 c 3.2006 6.2927 5.0897 13.184 5.6402 20.109 c 0.60672 7.3596 -0.21587 14.85 -1.6046 22.316 z" stroke-linecap="round"/>
</g>
		<g transform="matrix(0.6918 0 0 0.6918 376.8927 93.8375)" id="path4421">
<path style="stroke: none; stroke-width: 1; stroke-dasharray: none; stroke-linecap: butt; stroke-dashoffset: 0; stroke-linejoin: miter; stroke-miterlimit: 4; is-custom-font: none; font-file-url: none; fill: rgb(14,35,46); fill-rule: evenodd; opacity: 1; visibility: hidden;" transform=" translate(-743.587, -515.9234)" d="m 819.19 468.4 l -9.283 3.7183 c 5.1684 12.231 9.7063 24.658 12.633 37.43 c 3.7926 13.733 5.6184 28.072 3.3512 41.944 l 0 0.00001 c -27.166 5.7882 -55.65 7.1493 -84.304 7.9212 l -0.00001 0 c -28.983 0.9867 -58.127 1.0679 -87.01 4.0332 c 28.976 -1.8495 57.99 -0.80332 87.06 -0.67466 l 0.00001 0 c 29.167 -0.0827 58.81 -1.2144 88.231 -7.3397 l 0 -0.00001 c 3.6502 -15.607 3.2996 -31.915 0.93666 -47.612 c -2.58 -13.555 -6.7822 -26.683 -11.615 -39.42 z" stroke-linecap="round"/>
</g>
		<g transform="matrix(0.6918 0 0 0.6918 6.5611 121.217)" id="path4423">
<path style="stroke: none; stroke-width: 1; stroke-dasharray: none; stroke-linecap: butt; stroke-dashoffset: 0; stroke-linejoin: miter; stroke-miterlimit: 4; is-custom-font: none; font-file-url: none; fill: rgb(14,35,46); fill-rule: evenodd; opacity: 1; visibility: hidden;" transform=" translate(-208.3045, -555.4971)" d="m 496.57 564.39 l 0.84946 -9.9639 c -95.908 -7.34 -192.06 -8.4077 -288.06 -7.5894 c -96.761 0.82343 -193.44 3.6535 -290.17 4.4901 c 96.726 0.83662 193.48 -0.32046 290.17 0.52962 c 95.934 0.84474 191.88 3.5694 287.21 12.534 z" stroke-linecap="round"/>
</g>
		<g transform="matrix(0.6918 0 0 0.6918 -386.1401 105.3455)" id="path4425">
<path style="stroke: none; stroke-width: 1; stroke-dasharray: none; stroke-linecap: butt; stroke-dashoffset: 0; stroke-linejoin: miter; stroke-miterlimit: 4; is-custom-font: none; font-file-url: none; fill: rgb(14,35,46); fill-rule: evenodd; opacity: 1; visibility: hidden;" transform=" translate(359.3284, -532.5557)" d="m -234.94 540.13 l 1.1616 -9.9323 c -83.681 -8.089 -167.5 -4.7817 -251.1 -3.1151 c 83.601 1.6667 167.55 1.715 249.94 13.047 z" stroke-linecap="round"/>
</g>
		<g transform="matrix(0.6918 0 0 0.6918 -63.358 156.8059)" id="path4427">
<path style="stroke: none; stroke-width: 1; stroke-dasharray: none; stroke-linecap: butt; stroke-dashoffset: 0; stroke-linejoin: miter; stroke-miterlimit: 4; is-custom-font: none; font-file-url: none; fill: rgb(14,35,46); fill-rule: evenodd; opacity: 1; visibility: hidden;" transform=" translate(-107.2545, -606.9388)" d="m 694.63 620.96 l 0.70448 -9.9752 c -195.48 -12.96 -391.38 -17.15 -587.18 -17.93 c -196.35 -0.77827 -392.66 1.8842 -588.98 2.7187 c 196.32 0.8345 392.66 -0.15884 588.94 2.2882 c 195.73 2.4407 391.45 8.2899 586.53 22.902 z" stroke-linecap="round"/>
</g>
		<g transform="matrix(0.6918 0 0 0.6918 -339.8951 86.4845)" id="path4429">
<path style="stroke: none; stroke-width: 1; stroke-dasharray: none; stroke-linecap: butt; stroke-dashoffset: 0; stroke-linejoin: miter; stroke-miterlimit: 4; is-custom-font: none; font-file-url: none; fill: rgb(14,35,46); fill-rule: evenodd; opacity: 1; visibility: hidden;" transform=" translate(292.4868, -505.2953)" d="m -227.2 556.24 l 1.8442 -9.8285 c -27.114 -4.2031 -53.149 -16.025 -75.597 -32.756 c -22.204 -16.544 -41.206 -37.406 -58.665 -59.305 c 16.134 22.893 33.922 44.938 55.576 63.197 c 21.959 18.507 48.238 32.44 76.842 38.692 z" stroke-linecap="round"/>
</g>
		<g transform="matrix(0.6918 0 0 0.6918 -144.755 35.5449)" id="path4431">
<path style="stroke: none; stroke-width: 1; stroke-dasharray: none; stroke-linecap: butt; stroke-dashoffset: 0; stroke-linejoin: miter; stroke-miterlimit: 4; is-custom-font: none; font-file-url: none; fill: rgb(14,35,46); fill-rule: evenodd; opacity: 1; visibility: hidden;" transform=" translate(10.4252, -431.6648)" d="m -43.8 388.78 l -1.2942 9.9159 c 8.9446 0.75224 17.828 3.3059 25.558 7.9549 c 7.194 4.2823 13.458 10.366 18.733 17.275 c 5.5238 7.2434 10.001 15.395 13.958 23.815 l 0.000002 0 c 4.0959 8.7218 7.6201 17.759 11.089 26.809 c -2.6552 -9.3222 -5.3671 -18.64 -8.713 -27.799 c -0.000001 0 -0.000001 -0.00001 -0.000002 -0.00001 c -3.2277 -8.8421 -7.0602 -17.57 -12.174 -25.704 c -4.8937 -7.7911 -11.087 -14.973 -18.777 -20.587 c -8.3454 -6.04 -18.182 -9.9338 -28.38 -11.68 z" stroke-linecap="round"/>
</g>
		<g transform="matrix(0.6918 0 0 0.6918 -88.9478 35.5633)" id="path4433">
<path style="stroke: none; stroke-width: 1; stroke-dasharray: none; stroke-linecap: butt; stroke-dashoffset: 0; stroke-linejoin: miter; stroke-miterlimit: 4; is-custom-font: none; font-file-url: none; fill: rgb(14,35,46); fill-rule: evenodd; opacity: 1; visibility: hidden;" transform=" translate(-70.2416, -431.6913)" d="m 17.1 392.87 l -1.8759 9.8225 c 10.95 1.6153 21.708 5.574 31.95 10.72 l 0.000003 0 c 10.428 5.2504 20.32 11.772 29.872 18.827 l 0.000006 0 c 9.0157 6.6616 17.713 13.843 26.402001 21.053 c 7.116 5.9062 14.201 11.948 21.811 17.22 c -7.1914 -5.8294 -13.748 -12.342 -20.415 -18.778 c -8.123801 -7.8463 -16.285001 -15.69 -24.898001 -23.121 c -0.000002 -0.00001 -0.000004 -0.00001 -0.000005 -0.00001 c -9.1141 -7.8678 -18.734 -15.302 -29.213 -21.626 l -0.000006 0 c -10.295 -6.2231 -21.525 -11.328 -33.632 -14.116 z" stroke-linecap="round"/>
</g>
		<g transform="matrix(0.6918 0 0 0.6918 275.5493 100.633)" id="path4918">
<path style="stroke: rgb(73,57,57); stroke-width: 0.4198; stroke-dasharray: none; stroke-linecap: round; stroke-dashoffset: 0; stroke-linejoin: round; stroke-miterlimit: 4; is-custom-font: none; font-file-url: none; fill: rgb(14,35,46); fill-rule: nonzero; opacity: 1; visibility: hidden;" transform=" translate(-597.1017, -525.7464)" d="m 572.84 584.37 c 52.197 13.986 105.17 -14.46 118.32 -63.534 c 5.2522 -19.601 3.3475 -39.518 -4.1504 -57.275 c 1.6388 11.418 1.0734 23.254 -2.0664 34.972 c -13.149 49.074 -66.126 77.52 -118.32 63.534 c -31.348 -8.3997 -55.28 -30.208 -66.553 -56.908 c 5.2247 36.4 33.037 68.564 72.77 79.211 z" stroke-linecap="round"/>
</g>
		<g transform="matrix(0.6918 0 0 0.6918 -338.5044 95.6562)" id="path3360">
<path style="stroke: none; stroke-width: 1; stroke-dasharray: none; stroke-linecap: butt; stroke-dashoffset: 0; stroke-linejoin: miter; stroke-miterlimit: 4; is-custom-font: none; font-file-url: none; fill: rgb(14,35,46); fill-rule: evenodd; opacity: 1; visibility: hidden;" transform=" translate(294.965, -523.04)" d="m -197.99 528.04 l 0 -10 c -64.65 1.6667 -129.3 3.3333 -193.95 5 c 64.65 1.6667 129.3 3.3333 193.95 5 z" stroke-linecap="round"/>
</g>
		<g transform="matrix(0.6918 0 0 0.6918 -378.9246 78.1991)" id="path3362">
<path style="stroke: none; stroke-width: 1; stroke-dasharray: none; stroke-linecap: butt; stroke-dashoffset: 0; stroke-linejoin: miter; stroke-miterlimit: 4; is-custom-font: none; font-file-url: none; fill: rgb(14,35,46); fill-rule: evenodd; opacity: 1; visibility: hidden;" transform=" translate(353.3883, -497.8068)" d="m -222.57 503.79 l 0.66672 -9.9778 c -87.783 -4.1873 -175.4 -0.7184 -262.97 0.94827 c 87.576 1.6667 175.33 1.5393 262.31 9.0295 z" stroke-linecap="round"/>
</g>
		<g transform="matrix(0.6918 0 0 0.6918 -402.8013 56.5193)" id="path3364">
<path style="stroke: none; stroke-width: 1; stroke-dasharray: none; stroke-linecap: butt; stroke-dashoffset: 0; stroke-linejoin: miter; stroke-miterlimit: 4; is-custom-font: none; font-file-url: none; fill: rgb(14,35,46); fill-rule: evenodd; opacity: 1; visibility: hidden;" transform=" translate(387.9, -466.47)" d="m -242.44 471.47 l 0 -10 c -96.975 1.6667 -193.95 3.3333 -290.92 5 c 96.975 1.6667 193.95 3.3333 290.92 5 z" stroke-linecap="round"/>
</g>
		<g transform="matrix(0.6918 0 0 0.6918 -269.9451 -1.611)" id="path3366">
<path style="stroke: none; stroke-width: 1; stroke-dasharray: none; stroke-linecap: butt; stroke-dashoffset: 0; stroke-linejoin: miter; stroke-miterlimit: 4; is-custom-font: none; font-file-url: none; fill: rgb(14,35,46); fill-rule: evenodd; opacity: 1; visibility: hidden;" transform=" translate(195.865, -382.4476)" d="m -60.112 410.84 l -0.99504 -9.9504 c -44.162 4.9816 -88.627 7.5724 -133.13 7.8563 l -0.00001 0 c -45.714 1.3698 -91.526 -0.14406 -136.78 -6.932 l 0.00002 0 c 21.356 -4.4546 41.275 -13.412 60.484 -23.429 c 17.633 -9.4211 34.61 -19.938 52.349 -29.089 c -17.963 8.7004 -35.236 18.804 -53.043 27.748 c -19.407 9.9942 -39.385 19.42 -60.398 24.79 c 45.286 7.8572 91.346 11.591 137.35 13.536 c 0 0 0.00001 0 0.00002 0.00001 c 44.729 0.8432 89.538 -0.63237 134.17 -4.5302 z" stroke-linecap="round"/>
</g>
		<g transform="matrix(0.6918 0 0 0.6918 -84.1698 -8.1089)" id="path3368">
<path style="stroke: none; stroke-width: 1; stroke-dasharray: none; stroke-linecap: butt; stroke-dashoffset: 0; stroke-linejoin: miter; stroke-miterlimit: 4; is-custom-font: none; font-file-url: none; fill: rgb(14,35,46); fill-rule: evenodd; opacity: 1; visibility: hidden;" transform=" translate(-72.671, -373.0542)" d="m -262.52 360.46 l -0.23902 9.9971 c 112.35 1.8489 224.61 -0.055 336.84 0.43715 c 111.49 0.49 223.09 3.27 334.02 14.76 c -110.75 -13.14 -222.42 -17.6 -333.96 -19.75 c -112.28 -2.16 -224.57 -1.93 -336.66 -5.45 z" stroke-linecap="round"/>
</g>
		<g transform="matrix(0.6918 0 0 0.6918 -96.2218 -38.1982)" id="path3370">
<path style="stroke: none; stroke-width: 1; stroke-dasharray: none; stroke-linecap: butt; stroke-dashoffset: 0; stroke-linejoin: miter; stroke-miterlimit: 4; is-custom-font: none; font-file-url: none; fill: rgb(14,35,46); fill-rule: evenodd; opacity: 1; visibility: hidden;" transform=" translate(-55.2499, -329.5648)" d="m -265.27 357.17 l 5.2589 8.5055 c 66.648 -41.864 140.95 -71.657 218.23 -87.587 c 0.000012 0 0.000024 -0.00001 0.000035 -0.00001 c 71.912 -14.827 145.959995 -18.127 219.569995 -15.9 c 21.378 -1.0901 43.013 2.6558 62.853 10.846 c 0.00001 0.00001 0.00003 0.00001 0.00004 0.00002 c 19.16001 7.9093 36.631 19.692 52.419 33.291 c 16.157 13.919 30.646 29.731 44.299 46.185 c 13.3 16.03 25.79 32.731 38.413 49.318 c -12.389 -16.762 -24.642 -33.635 -37.734 -49.873 c -13.438 -16.667 -27.747 -32.728 -43.809 -46.968 c -15.697 -13.918 -33.185 -26.07 -52.557 -34.401 l -0.00001 0 c -20.051 -8.6221 -42.027 -12.768 -63.896 -11.962 c -73.748 -3.2777 -148.139995 -1.0028 -220.859995 12.924 c -0.000012 0.00001 -0.000023 0.00001 -0.000035 0.00001 c -78.286 14.998 -153.93 44.069 -222.19 85.619 z" stroke-linecap="round"/>
</g>
		<g transform="matrix(0.6918 0 0 0.6918 101.2473 -49.5399)" id="path3372">
<path style="stroke: none; stroke-width: 1; stroke-dasharray: none; stroke-linecap: butt; stroke-dashoffset: 0; stroke-linejoin: miter; stroke-miterlimit: 4; is-custom-font: none; font-file-url: none; fill: rgb(14,35,46); fill-rule: evenodd; opacity: 1; visibility: hidden;" transform=" translate(-340.6695, -313.1699)" d="m 437.54 361.9 l 5.3945 -8.4202 c -63.8 -38.95 -131.82 -72.92 -204.53 -89.04 c 71.916 19.357 137.57 56.069 199.15 97.454 z" stroke-linecap="round"/>
</g>
		<g transform="matrix(0.6918 0 0 0.6918 102.7076 -34.9976)" id="path3374">
<path style="stroke: none; stroke-width: 1; stroke-dasharray: none; stroke-linecap: butt; stroke-dashoffset: 0; stroke-linejoin: miter; stroke-miterlimit: 4; is-custom-font: none; font-file-url: none; fill: rgb(14,35,46); fill-rule: evenodd; opacity: 1; visibility: hidden;" transform=" translate(-342.7803, -334.1912)" d="m 441.77 381.79 l 5.3946 -8.4201 c -2.0938 -0.87143 -3.1523 -1.1254 -3.1462 -0.82554 c -0.61869 0.0384 -1.0489 0.0986 -1.2919 0.16063 c -0.90712 0.1886 -1.6593 0.40764 -2.2688 0.60553 c -2.2291 0.69949 -4.3348 1.4888 -6.3546 2.2612 l -0.00001 0 c -6.7779 2.5832 -13.428 5.36 -20.027 8.149 c 0 0 -0.00001 0 -0.00001 0.00001 c -16.405 7.8168 -32.899 15.838 -49.466 24.068 l -0.00001 0 c -4.5626 -16.215 -11.767 -31.568 -20.798 -45.821 c -9.4927 -14.329 -20.502 -27.526 -32.287 -39.879 c -22.709 -23.801 -48.279 -44.399 -73.129 -65.727 c 24.095 22.178 48.958 43.677 70.62 68.038 c 11.245 12.645 21.643 26.026 30.427 40.354 l 0 0.00001 c 9.482 14.775 17.496 30.637 23.256 47.267 c 0 -0.00001 0.00001 -0.00001 0.00001 -0.00001 c 17.891 -7.0846 36.134 -13.752 54.712 -20.008 c 0 0 0.00001 0 0.00001 -0.00001 c 6.6694 -2.5483 13.312 -5.0561 19.984 -7.3351 l 0.00001 -0.00001 c 2.0241 -0.68955 3.9708 -1.3481 5.866 -1.8654 c 0.56857 -0.14966 0.99956 -0.26946 1.2997 -0.30682 c 0.11222 -0.004 0.04 -0.004 -0.21752 0.0231 c 0.20158 0.29348 -0.64425 0.0271 -2.5734 -0.73889 z" stroke-linecap="round"/>
</g>
		<g transform="matrix(0.6918 0 0 0.6918 26.2897 106.8362)" id="path3376">
<path style="stroke: none; stroke-width: 1; stroke-dasharray: none; stroke-linecap: butt; stroke-dashoffset: 0; stroke-linejoin: miter; stroke-miterlimit: 4; is-custom-font: none; font-file-url: none; fill: rgb(14,35,46); fill-rule: evenodd; opacity: 1; visibility: hidden;" transform=" translate(-232.33, -539.2)" d="m 492.95 544.2 l 0 -10 l -521.24 5 l 521.24 5 z" stroke-linecap="round"/>
</g>
		<g transform="matrix(0.6918 0 0 0.6918 -380.8904 -39.6635)" id="path3378">
<path style="stroke: none; stroke-width: 1; stroke-dasharray: none; stroke-linecap: butt; stroke-dashoffset: 0; stroke-linejoin: miter; stroke-miterlimit: 4; is-custom-font: none; font-file-url: none; fill: rgb(14,35,46); fill-rule: evenodd; opacity: 1; visibility: hidden;" transform=" translate(356.2344, -327.4473)" d="m -341.54 408.06 l 9.657 2.5968 c 3.1353 -13.065 4.0332 -26.335 4.0151 -39.379 c -0.31965 -13.698 -1.4021 -27.072 -1.8971 -40.224 c -11.382 -7.0238 -21.717 -15.653 -30.891 -25.232 c -7.3955 -7.5054 -14.268 -15.881 -22.194 -23.418 c -0.24202 -12.602 -0.53391 -25.324 -0.87561 -38.166 c -0.3417 12.843 -0.63355 25.806 -0.87561 38.89 c 7.4132 7.8551 13.857 16.752 21.157 25.254 c 8.5625 9.7399 18.295 18.351 29.189 25.169 l 0 0.00001 c -0.49495 12.765 -0.56418 25.311 -1.5568 37.521 c -0.68608 12.671 -2.1834 25.212 -5.728 36.989 z" stroke-linecap="round"/>
</g>
		<g transform="matrix(0.6918 0 0 0.6918 -358.3731 -67.0065)" id="path3380">
<path style="stroke: none; stroke-width: 1; stroke-dasharray: none; stroke-linecap: butt; stroke-dashoffset: 0; stroke-linejoin: miter; stroke-miterlimit: 4; is-custom-font: none; font-file-url: none; fill: rgb(14,35,46); fill-rule: evenodd; opacity: 1; visibility: hidden;" transform=" translate(323.6846, -287.9221)" d="m -402.03 259.87 l -4.0614 9.1381 c 39.418 16.699 79.131 32.196 118.91 46.966 c 6.0079 -1.0936 11.529 -3.5539 16.371 -6.7259 c 4.593 -3.2001 8.6089 -7.0045 12.28 -10.983 l 0 -0.00001 c 3.4663 -3.7489 6.6392 -7.6586 9.8118 -11.481 c 2.4418 -3.7726 4.7326 -7.4431 7.4407 -10.409 c -25.792 -10.412 -53.305 -13.64 -80.324 -14.213 l -0.00002 0 c -27.553 -0.25123 -54.979 1.8835 -82.461 2.2778 c 27.483 0.39432 55.008 -0.95214 82.406 0.0875 l 0.00002 0 c 26.758 0.68993 53.642 3.3231 78.058 12.221 c -3.4229 2.0501 -6.23 4.5239 -8.9357 6.7725 c -3.3087 3.7582 -6.5328 7.5109 -9.9432 10.986 c 0 0 0 0.00001 -0.00001 0.00001 c -3.6311 3.6928 -7.4441 7.1234 -11.633 9.843 c -3.8848 2.7109 -8.1265 4.7661 -12.478 5.5297 c -39.029 -15.85 -77.598 -32.369 -115.44 -50.009 z" stroke-linecap="round"/>
</g>
		<g transform="matrix(0.6918 0 0 0.6918 -343.3527 -31.9567)" id="path3382">
<path style="stroke: none; stroke-width: 1; stroke-dasharray: none; stroke-linecap: butt; stroke-dashoffset: 0; stroke-linejoin: miter; stroke-miterlimit: 4; is-custom-font: none; font-file-url: none; fill: rgb(14,35,46); fill-rule: evenodd; opacity: 1; visibility: hidden;" transform=" translate(301.9768, -338.5852)" d="m -299.1 384.44 l 8.2634 -5.6316 c -4.5273 -5.902 -8.4096 -12.321 -11.283 -19.198 c -2.6305 -6.2646 -4.4325 -12.97 -5.6132 -19.837 c -2.6341 -15.291 -2.5406 -31.252 -3.3975 -47.043 c -0.85694 15.791 -2.6787 31.544 -1.7105 47.629 l 0 0.00001 c 0.44256 7.2712 1.5773 14.583 3.6891 21.736 c 2.3284 7.8413 5.7879 15.346 10.052 22.344 z" stroke-linecap="round"/>
</g>
		<g transform="matrix(0.6918 0 0 0.6918 -91.4564 49.1426)" id="path3384">
<path style="stroke: none; stroke-width: 1; stroke-dasharray: none; stroke-linecap: butt; stroke-dashoffset: 0; stroke-linejoin: miter; stroke-miterlimit: 4; is-custom-font: none; font-file-url: none; fill: rgb(14,35,46); fill-rule: evenodd; opacity: 1; visibility: hidden;" transform=" translate(-62.1429, -455.8105)" d="m -364.61 442.05 l 9.9936 0.35704 c 0.18691 -5.7959 1.0304 -11.515 2.8436 -16.832 c 1.4656 -4.3571 3.6193 -8.5254 6.2667 -12.387 c 0.00001 0 0.00001 -0.00001 0.00001 -0.00001 c 4.1529 -6.7132 10.361 -12.574 16.01 -19.634 c 88.881 -2.7024 178.12 -4.7806 267.73 -5.1675 l 0.000047 0 c 24.803 25.556 51.08 49.746 78.655 72.446 c 26.604 21.693 54.288 42.097 83.470003 60.09 c 0.00002 0.00001 0.00003 0.00002 0.00004 0.00003 c 64.643 5.9808 129.48 7.6831 194.17 7.8255 c 64.81 0.11763 129.59 -1.3187 194.38 -1.667 c -64.793 -0.34821 -129.6 0.39174 -194.37 -0.42228 c -64.498 -0.78637 -128.94 -3.0782 -192.88 -9.5816 c -28.570003 -18.102 -55.558003 -38.573 -81.416003 -60.304 c -27.812 -23.144 -54.439 -47.8 -79.708 -73.84 l -0.000046 0 c -90.897001 -0.38697 -182.140001 0.93975 -273.710001 2.9137 c -6.3123 6.8951 -13.913 13.463 -20.255 21.839 c -0.00001 0.00001 -0.00002 0.00003 -0.00003 0.00004 c -3.1643 4.4944 -5.7708 9.4302 -7.6213 14.696 c -2.2263 6.4052 -3.3161 13.073 -3.5719 19.668 z" stroke-linecap="round"/>
</g>
		<g transform="matrix(0.6918 0 0 0.6918 128.6681 49.6017)" id="path3386">
<path style="stroke: none; stroke-width: 1; stroke-dasharray: none; stroke-linecap: butt; stroke-dashoffset: 0; stroke-linejoin: miter; stroke-miterlimit: 4; is-custom-font: none; font-file-url: none; fill: rgb(14,35,46); fill-rule: evenodd; opacity: 1; visibility: hidden;" transform=" translate(-380.3013, -456.474)" d="m 403.11 526.89 l 9.9923 0.39302 c 0.18736 -28.057 -8.1922 -55.191 -20.882 -79.387 c -11.958 -22.827 -27.521 -43.405 -44.723 -62.231 c 15.973 19.879 30.099 41.29 40.353 64.347 c 10.842 24.416 17.195 50.969 15.26 76.878 z" stroke-linecap="round"/>
</g>
		<g transform="matrix(0.6918 0 0 0.6918 294.4158 24.1991)" id="path3388">
<path style="stroke: none; stroke-width: 1; stroke-dasharray: none; stroke-linecap: butt; stroke-dashoffset: 0; stroke-linejoin: miter; stroke-miterlimit: 4; is-custom-font: none; font-file-url: none; fill: rgb(14,35,46); fill-rule: evenodd; opacity: 1; visibility: hidden;" transform=" translate(-619.8871, -419.7553)" d="m 812.85 474.22 l 6.7041 -7.4199 c -26.036 -22.964 -55.754 -41.421 -87.266 -55.468 c -31.768 -14.159 -65.236 -23.981 -99.148 -30.801 c -34.902 -7.0205 -70.308 -10.926 -105.74 -13.047 l -0.00002 0 c -35.703 -2.1383 -71.459 -2.4561 -107.18 -2.0301 c 35.721 0.42597 71.441 1.5966 107 4.5794 l 0.00001 0 c 35.284 2.9607 70.428 7.6888 104.86 15.478 c 0 0 0.00001 0.00001 0.00002 0.00001 c 33.448 7.5688 66.249 18.05 97.052 32.685 c 30.539 14.507 59.075 33.194 83.721 56.023 z" stroke-linecap="round"/>
</g>
		<g transform="matrix(0.6918 0 0 0.6918 -230.2827 81.4636)" id="path3390">
<path style="stroke: rgb(73,57,57); stroke-width: 0.4198; stroke-dasharray: none; stroke-linecap: round; stroke-dashoffset: 0; stroke-linejoin: round; stroke-miterlimit: 4; is-custom-font: none; font-file-url: none; fill: rgb(14,35,46); fill-rule: nonzero; opacity: 1; visibility: hidden;" transform=" translate(138.5372, -502.5285)" d="m -135.01 575.65 c -54.038 0 -97.847 -41.188 -97.847 -91.993 c 0 -20.293 6.9946 -39.038 18.833 -54.25 c -4.538 10.604 -7.0555 22.184 -7.0555 34.315 c 0 50.805 43.809 91.993 97.847 91.993 c 32.454 0 61.214 -14.871 79.015 -37.743 c -14.468 33.807 -49.657 57.678 -90.792 57.678 z" stroke-linecap="round"/>
</g>
		<g transform="matrix(0.6918 0 0 0.6918 278.6554 97.5268)" id="path3392">
<path style="stroke: rgb(73,57,57); stroke-width: 0.4198; stroke-dasharray: none; stroke-linecap: round; stroke-dashoffset: 0; stroke-linejoin: round; stroke-miterlimit: 4; is-custom-font: none; font-file-url: none; fill: rgb(14,35,46); fill-rule: nonzero; opacity: 1; visibility: hidden;" transform=" translate(-597.1017, -525.7464)" d="m 572.84 584.37 c 52.197 13.986 105.17 -14.46 118.32 -63.534 c 5.2522 -19.601 3.3475 -39.518 -4.1504 -57.275 c 1.6388 11.418 1.0734 23.254 -2.0664 34.972 c -13.149 49.074 -66.126 77.52 -118.32 63.534 c -31.348 -8.3997 -55.28 -30.208 -66.553 -56.908 c 5.2247 36.4 33.037 68.564 72.77 79.211 z" stroke-linecap="round"/>
</g>
		<g transform="matrix(0.6918 0 0 0.6918 -26.6039 -41.3781)" id="path3394">
<path style="stroke: none; stroke-width: 1; stroke-dasharray: none; stroke-linecap: butt; stroke-dashoffset: 0; stroke-linejoin: miter; stroke-miterlimit: 4; is-custom-font: none; font-file-url: none; fill: rgb(14,35,46); fill-rule: evenodd; opacity: 1; visibility: hidden;" transform=" translate(-155.8651, -324.967)" d="m 170.57 361.6 l 6.3502 7.725 c 4.3338 -3.7726 8.472 -8.3724 11.215 -14.034 c 2.0321 -4.2372 2.8577 -9.0832 2.1002 -13.845 c -0.84635 -4.6682 -2.9615 -8.7283 -5.5538 -12.123 c -3.0373 -4.0264 -6.6169 -7.4035 -10.299 -10.441 c -8.7233 -7.2142 -18.228 -13.028 -27.483 -19.036 c -9.0077 -5.8631 -18.057 -11.667 -25.682 -19.237 c 6.9631 8.1825 15.626 14.862 24.114 21.442 c 8.7536 6.7992 17.678 13.34 25.377 20.911 l 0.00001 0 c 3.2377 3.1932 6.2352 6.5121 8.4896 10.148 l 0.00001 0.00001 c 1.86 3.0516 3.2619 6.2519 3.4531 9.3493 c 0.2794 2.9993 -0.62993 6.1477 -2.191 8.8672 c -2.2142 3.9364 -5.8788 7.186 -9.8902 10.273 z" stroke-linecap="round"/>
</g>
		<g transform="matrix(0.6918 0 0 0.6918 -57.6035 -67.6629)" id="path3396">
<path style="stroke: none; stroke-width: 1; stroke-dasharray: none; stroke-linecap: butt; stroke-dashoffset: 0; stroke-linejoin: miter; stroke-miterlimit: 4; is-custom-font: none; font-file-url: none; fill: rgb(14,35,46); fill-rule: evenodd; opacity: 1; visibility: hidden;" transform=" translate(-111.0606, -286.9723)" d="m 3.9289 283.69 l 0.22347 9.9975 c 71.614 -3.2691 142.6 -11.413 214.04 -13.08 c -71.441 -1.6667 -143.03 3.1586 -214.26 3.0825 z" stroke-linecap="round"/>
</g>
		<g transform="matrix(0.6918 0 0 0.6918 -111.5639 -42.476)" id="path3398">
<path style="stroke: none; stroke-width: 1; stroke-dasharray: none; stroke-linecap: butt; stroke-dashoffset: 0; stroke-linejoin: miter; stroke-miterlimit: 4; is-custom-font: none; font-file-url: none; fill: rgb(14,35,46); fill-rule: evenodd; opacity: 1; visibility: hidden;" transform=" translate(-33.0604, -323.3801)" d="m 51.617 364.77 l 9.904 1.3821 c 0.78457 -8.1068 0.86302 -16.469 -0.55292 -24.703 c -1.3633 -7.829 -4.224 -15.325 -8.4017 -21.952 l -0.000001 0 c -4.9244 -7.7649 -11.363 -14.23 -18.307 -19.789 l -0.000004 0 c -9.387 -7.5238 -19.695 -13.602 -30.218 -19.1 c 9.9692 6.4483 19.62 13.428 28.037 21.578 l 0.000002 0 c 6.2097 6.0204 11.737 12.705 15.504 20.158 c 3.2006 6.2927 5.0897 13.184 5.6402 20.109 c 0.60672 7.3596 -0.21587 14.85 -1.6046 22.316 z" stroke-linecap="round"/>
</g>
		<g transform="matrix(0.6918 0 0 0.6918 379.9988 90.7314)" id="path3400">
<path style="stroke: none; stroke-width: 1; stroke-dasharray: none; stroke-linecap: butt; stroke-dashoffset: 0; stroke-linejoin: miter; stroke-miterlimit: 4; is-custom-font: none; font-file-url: none; fill: rgb(14,35,46); fill-rule: evenodd; opacity: 1; visibility: hidden;" transform=" translate(-743.587, -515.9234)" d="m 819.19 468.4 l -9.283 3.7183 c 5.1684 12.231 9.7063 24.658 12.633 37.43 c 3.7926 13.733 5.6184 28.072 3.3512 41.944 l 0 0.00001 c -27.166 5.7882 -55.65 7.1493 -84.304 7.9212 l -0.00001 0 c -28.983 0.9867 -58.127 1.0679 -87.01 4.0332 c 28.976 -1.8495 57.99 -0.80332 87.06 -0.67466 l 0.00001 0 c 29.167 -0.0827 58.81 -1.2144 88.231 -7.3397 l 0 -0.00001 c 3.6502 -15.607 3.2996 -31.915 0.93666 -47.612 c -2.58 -13.555 -6.7822 -26.683 -11.615 -39.42 z" stroke-linecap="round"/>
</g>
		<g transform="matrix(0.6918 0 0 0.6918 9.6672 118.1109)" id="path3402">
<path style="stroke: none; stroke-width: 1; stroke-dasharray: none; stroke-linecap: butt; stroke-dashoffset: 0; stroke-linejoin: miter; stroke-miterlimit: 4; is-custom-font: none; font-file-url: none; fill: rgb(14,35,46); fill-rule: evenodd; opacity: 1; visibility: hidden;" transform=" translate(-208.3045, -555.4971)" d="m 496.57 564.39 l 0.84946 -9.9639 c -95.908 -7.34 -192.06 -8.4077 -288.06 -7.5894 c -96.761 0.82343 -193.44 3.6535 -290.17 4.4901 c 96.726 0.83662 193.48 -0.32046 290.17 0.52962 c 95.934 0.84474 191.88 3.5694 287.21 12.534 z" stroke-linecap="round"/>
</g>
		<g transform="matrix(0.6918 0 0 0.6918 -383.0339 102.2394)" id="path3404">
<path style="stroke: none; stroke-width: 1; stroke-dasharray: none; stroke-linecap: butt; stroke-dashoffset: 0; stroke-linejoin: miter; stroke-miterlimit: 4; is-custom-font: none; font-file-url: none; fill: rgb(14,35,46); fill-rule: evenodd; opacity: 1; visibility: hidden;" transform=" translate(359.3284, -532.5557)" d="m -234.94 540.13 l 1.1616 -9.9323 c -83.681 -8.089 -167.5 -4.7817 -251.1 -3.1151 c 83.601 1.6667 167.55 1.715 249.94 13.047 z" stroke-linecap="round"/>
</g>
		<g transform="matrix(0.6918 0 0 0.6918 -60.2518 153.6998)" id="path3406">
<path style="stroke: none; stroke-width: 1; stroke-dasharray: none; stroke-linecap: butt; stroke-dashoffset: 0; stroke-linejoin: miter; stroke-miterlimit: 4; is-custom-font: none; font-file-url: none; fill: rgb(14,35,46); fill-rule: evenodd; opacity: 1; visibility: hidden;" transform=" translate(-107.2545, -606.9388)" d="m 694.63 620.96 l 0.70448 -9.9752 c -195.48 -12.96 -391.38 -17.15 -587.18 -17.93 c -196.35 -0.77827 -392.66 1.8842 -588.98 2.7187 c 196.32 0.8345 392.66 -0.15884 588.94 2.2882 c 195.73 2.4407 391.45 8.2899 586.53 22.902 z" stroke-linecap="round"/>
</g>
		<g transform="matrix(0.6918 0 0 0.6918 -336.789 83.3784)" id="path3408">
<path style="stroke: none; stroke-width: 1; stroke-dasharray: none; stroke-linecap: butt; stroke-dashoffset: 0; stroke-linejoin: miter; stroke-miterlimit: 4; is-custom-font: none; font-file-url: none; fill: rgb(14,35,46); fill-rule: evenodd; opacity: 1; visibility: hidden;" transform=" translate(292.4868, -505.2953)" d="m -227.2 556.24 l 1.8442 -9.8285 c -27.114 -4.2031 -53.149 -16.025 -75.597 -32.756 c -22.204 -16.544 -41.206 -37.406 -58.665 -59.305 c 16.134 22.893 33.922 44.938 55.576 63.197 c 21.959 18.507 48.238 32.44 76.842 38.692 z" stroke-linecap="round"/>
</g>
		<g transform="matrix(0.6918 0 0 0.6918 -141.6489 32.4387)" id="path3410">
<path style="stroke: none; stroke-width: 1; stroke-dasharray: none; stroke-linecap: butt; stroke-dashoffset: 0; stroke-linejoin: miter; stroke-miterlimit: 4; is-custom-font: none; font-file-url: none; fill: rgb(14,35,46); fill-rule: evenodd; opacity: 1; visibility: hidden;" transform=" translate(10.4252, -431.6648)" d="m -43.8 388.78 l -1.2942 9.9159 c 8.9446 0.75224 17.828 3.3059 25.558 7.9549 c 7.194 4.2823 13.458 10.366 18.733 17.275 c 5.5238 7.2434 10.001 15.395 13.958 23.815 l 0.000002 0 c 4.0959 8.7218 7.6201 17.759 11.089 26.809 c -2.6552 -9.3222 -5.3671 -18.64 -8.713 -27.799 c -0.000001 0 -0.000001 -0.00001 -0.000002 -0.00001 c -3.2277 -8.8421 -7.0602 -17.57 -12.174 -25.704 c -4.8937 -7.7911 -11.087 -14.973 -18.777 -20.587 c -8.3454 -6.04 -18.182 -9.9338 -28.38 -11.68 z" stroke-linecap="round"/>
</g>
		<g transform="matrix(0.6918 0 0 0.6918 -85.8417 32.4572)" id="path3412">
<path style="stroke: none; stroke-width: 1; stroke-dasharray: none; stroke-linecap: butt; stroke-dashoffset: 0; stroke-linejoin: miter; stroke-miterlimit: 4; is-custom-font: none; font-file-url: none; fill: rgb(14,35,46); fill-rule: evenodd; opacity: 1; visibility: hidden;" transform=" translate(-70.2416, -431.6913)" d="m 17.1 392.87 l -1.8759 9.8225 c 10.95 1.6153 21.708 5.574 31.95 10.72 l 0.000003 0 c 10.428 5.2504 20.32 11.772 29.872 18.827 l 0.000006 0 c 9.0157 6.6616 17.713 13.843 26.402001 21.053 c 7.116 5.9062 14.201 11.948 21.811 17.22 c -7.1914 -5.8294 -13.748 -12.342 -20.415 -18.778 c -8.123801 -7.8463 -16.285001 -15.69 -24.898001 -23.121 c -0.000002 -0.00001 -0.000004 -0.00001 -0.000005 -0.00001 c -9.1141 -7.8678 -18.734 -15.302 -29.213 -21.626 l -0.000006 0 c -10.295 -6.2231 -21.525 -11.328 -33.632 -14.116 z" stroke-linecap="round"/>
</g>
		<g transform="matrix(0.6918 0 0 0.6918 278.6554 97.5268)" id="path3414">
<path style="stroke: rgb(73,57,57); stroke-width: 0.4198; stroke-dasharray: none; stroke-linecap: round; stroke-dashoffset: 0; stroke-linejoin: round; stroke-miterlimit: 4; is-custom-font: none; font-file-url: none; fill: rgb(14,35,46); fill-rule: nonzero; opacity: 1; visibility: hidden;" transform=" translate(-597.1017, -525.7464)" d="m 572.84 584.37 c 52.197 13.986 105.17 -14.46 118.32 -63.534 c 5.2522 -19.601 3.3475 -39.518 -4.1504 -57.275 c 1.6388 11.418 1.0734 23.254 -2.0664 34.972 c -13.149 49.074 -66.126 77.52 -118.32 63.534 c -31.348 -8.3997 -55.28 -30.208 -66.553 -56.908 c 5.2247 36.4 33.037 68.564 72.77 79.211 z" stroke-linecap="round"/>
</g>
		<g transform="matrix(0.6918 0 0 0.6918 -335.4154 98.7623)" id="path4194">
<path style="stroke: none; stroke-width: 1; stroke-dasharray: none; stroke-linecap: butt; stroke-dashoffset: 0; stroke-linejoin: miter; stroke-miterlimit: 4; is-custom-font: none; font-file-url: none; fill: rgb(14,35,46); fill-rule: evenodd; opacity: 1; visibility: hidden;" transform=" translate(294.965, -523.04)" d="m -197.99 528.04 l 0 -10 c -64.65 1.6667 -129.3 3.3333 -193.95 5 c 64.65 1.6667 129.3 3.3333 193.95 5 z" stroke-linecap="round"/>
</g>
		<g transform="matrix(0.6918 0 0 0.6918 -375.8355 81.3052)" id="path4196">
<path style="stroke: none; stroke-width: 1; stroke-dasharray: none; stroke-linecap: butt; stroke-dashoffset: 0; stroke-linejoin: miter; stroke-miterlimit: 4; is-custom-font: none; font-file-url: none; fill: rgb(14,35,46); fill-rule: evenodd; opacity: 1; visibility: hidden;" transform=" translate(353.3883, -497.8068)" d="m -222.57 503.79 l 0.66672 -9.9778 c -87.783 -4.1873 -175.4 -0.7184 -262.97 0.94827 c 87.576 1.6667 175.33 1.5393 262.31 9.0295 z" stroke-linecap="round"/>
</g>
		<g transform="matrix(0.6918 0 0 0.6918 -399.7123 59.6254)" id="path4198">
<path style="stroke: none; stroke-width: 1; stroke-dasharray: none; stroke-linecap: butt; stroke-dashoffset: 0; stroke-linejoin: miter; stroke-miterlimit: 4; is-custom-font: none; font-file-url: none; fill: rgb(14,35,46); fill-rule: evenodd; opacity: 1; visibility: hidden;" transform=" translate(387.9, -466.47)" d="m -242.44 471.47 l 0 -10 c -96.975 1.6667 -193.95 3.3333 -290.92 5 c 96.975 1.6667 193.95 3.3333 290.92 5 z" stroke-linecap="round"/>
</g>
		<g transform="matrix(0.6918 0 0 0.6918 -266.8561 1.4952)" id="path4200">
<path style="stroke: none; stroke-width: 1; stroke-dasharray: none; stroke-linecap: butt; stroke-dashoffset: 0; stroke-linejoin: miter; stroke-miterlimit: 4; is-custom-font: none; font-file-url: none; fill: rgb(14,35,46); fill-rule: evenodd; opacity: 1; visibility: hidden;" transform=" translate(195.865, -382.4476)" d="m -60.112 410.84 l -0.99504 -9.9504 c -44.162 4.9816 -88.627 7.5724 -133.13 7.8563 l -0.00001 0 c -45.714 1.3698 -91.526 -0.14406 -136.78 -6.932 l 0.00002 0 c 21.356 -4.4546 41.275 -13.412 60.484 -23.429 c 17.633 -9.4211 34.61 -19.938 52.349 -29.089 c -17.963 8.7004 -35.236 18.804 -53.043 27.748 c -19.407 9.9942 -39.385 19.42 -60.398 24.79 c 45.286 7.8572 91.346 11.591 137.35 13.536 c 0 0 0.00001 0 0.00002 0.00001 c 44.729 0.8432 89.538 -0.63237 134.17 -4.5302 z" stroke-linecap="round"/>
</g>
		<g transform="matrix(0.6918 0 0 0.6918 -81.0807 -5.0027)" id="path4202">
<path style="stroke: none; stroke-width: 1; stroke-dasharray: none; stroke-linecap: butt; stroke-dashoffset: 0; stroke-linejoin: miter; stroke-miterlimit: 4; is-custom-font: none; font-file-url: none; fill: rgb(14,35,46); fill-rule: evenodd; opacity: 1; visibility: hidden;" transform=" translate(-72.671, -373.0542)" d="m -262.52 360.46 l -0.23902 9.9971 c 112.35 1.8489 224.61 -0.055 336.84 0.43715 c 111.49 0.49 223.09 3.27 334.02 14.76 c -110.75 -13.14 -222.42 -17.6 -333.96 -19.75 c -112.28 -2.16 -224.57 -1.93 -336.66 -5.45 z" stroke-linecap="round"/>
</g>
		<g transform="matrix(0.6918 0 0 0.6918 -93.1327 -35.092)" id="path4204">
<path style="stroke: none; stroke-width: 1; stroke-dasharray: none; stroke-linecap: butt; stroke-dashoffset: 0; stroke-linejoin: miter; stroke-miterlimit: 4; is-custom-font: none; font-file-url: none; fill: rgb(14,35,46); fill-rule: evenodd; opacity: 1; visibility: hidden;" transform=" translate(-55.2499, -329.5648)" d="m -265.27 357.17 l 5.2589 8.5055 c 66.648 -41.864 140.95 -71.657 218.23 -87.587 c 0.000012 0 0.000024 -0.00001 0.000035 -0.00001 c 71.912 -14.827 145.959995 -18.127 219.569995 -15.9 c 21.378 -1.0901 43.013 2.6558 62.853 10.846 c 0.00001 0.00001 0.00003 0.00001 0.00004 0.00002 c 19.16001 7.9093 36.631 19.692 52.419 33.291 c 16.157 13.919 30.646 29.731 44.299 46.185 c 13.3 16.03 25.79 32.731 38.413 49.318 c -12.389 -16.762 -24.642 -33.635 -37.734 -49.873 c -13.438 -16.667 -27.747 -32.728 -43.809 -46.968 c -15.697 -13.918 -33.185 -26.07 -52.557 -34.401 l -0.00001 0 c -20.051 -8.6221 -42.027 -12.768 -63.896 -11.962 c -73.748 -3.2777 -148.139995 -1.0028 -220.859995 12.924 c -0.000012 0.00001 -0.000023 0.00001 -0.000035 0.00001 c -78.286 14.998 -153.93 44.069 -222.19 85.619 z" stroke-linecap="round"/>
</g>
		<g transform="matrix(0.6918 0 0 0.6918 104.3364 -46.4338)" id="path4206">
<path style="stroke: none; stroke-width: 1; stroke-dasharray: none; stroke-linecap: butt; stroke-dashoffset: 0; stroke-linejoin: miter; stroke-miterlimit: 4; is-custom-font: none; font-file-url: none; fill: rgb(14,35,46); fill-rule: evenodd; opacity: 1; visibility: hidden;" transform=" translate(-340.6695, -313.1699)" d="m 437.54 361.9 l 5.3945 -8.4202 c -63.8 -38.95 -131.82 -72.92 -204.53 -89.04 c 71.916 19.357 137.57 56.069 199.15 97.454 z" stroke-linecap="round"/>
</g>
		<g transform="matrix(0.6918 0 0 0.6918 105.7967 -31.8914)" id="path4208">
<path style="stroke: none; stroke-width: 1; stroke-dasharray: none; stroke-linecap: butt; stroke-dashoffset: 0; stroke-linejoin: miter; stroke-miterlimit: 4; is-custom-font: none; font-file-url: none; fill: rgb(14,35,46); fill-rule: evenodd; opacity: 1; visibility: hidden;" transform=" translate(-342.7803, -334.1912)" d="m 441.77 381.79 l 5.3946 -8.4201 c -2.0938 -0.87143 -3.1523 -1.1254 -3.1462 -0.82554 c -0.61869 0.0384 -1.0489 0.0986 -1.2919 0.16063 c -0.90712 0.1886 -1.6593 0.40764 -2.2688 0.60553 c -2.2291 0.69949 -4.3348 1.4888 -6.3546 2.2612 l -0.00001 0 c -6.7779 2.5832 -13.428 5.36 -20.027 8.149 c 0 0 -0.00001 0 -0.00001 0.00001 c -16.405 7.8168 -32.899 15.838 -49.466 24.068 l -0.00001 0 c -4.5626 -16.215 -11.767 -31.568 -20.798 -45.821 c -9.4927 -14.329 -20.502 -27.526 -32.287 -39.879 c -22.709 -23.801 -48.279 -44.399 -73.129 -65.727 c 24.095 22.178 48.958 43.677 70.62 68.038 c 11.245 12.645 21.643 26.026 30.427 40.354 l 0 0.00001 c 9.482 14.775 17.496 30.637 23.256 47.267 c 0 -0.00001 0.00001 -0.00001 0.00001 -0.00001 c 17.891 -7.0846 36.134 -13.752 54.712 -20.008 c 0 0 0.00001 0 0.00001 -0.00001 c 6.6694 -2.5483 13.312 -5.0561 19.984 -7.3351 l 0.00001 -0.00001 c 2.0241 -0.68955 3.9708 -1.3481 5.866 -1.8654 c 0.56857 -0.14966 0.99956 -0.26946 1.2997 -0.30682 c 0.11222 -0.004 0.04 -0.004 -0.21752 0.0231 c 0.20158 0.29348 -0.64425 0.0271 -2.5734 -0.73889 z" stroke-linecap="round"/>
</g>
		<g transform="matrix(0.6918 0 0 0.6918 29.3788 109.9423)" id="path4210">
<path style="stroke: none; stroke-width: 1; stroke-dasharray: none; stroke-linecap: butt; stroke-dashoffset: 0; stroke-linejoin: miter; stroke-miterlimit: 4; is-custom-font: none; font-file-url: none; fill: rgb(14,35,46); fill-rule: evenodd; opacity: 1; visibility: hidden;" transform=" translate(-232.33, -539.2)" d="m 492.95 544.2 l 0 -10 l -521.24 5 l 521.24 5 z" stroke-linecap="round"/>
</g>
		<g transform="matrix(0.6918 0 0 0.6918 -377.8014 -36.5573)" id="path4212">
<path style="stroke: none; stroke-width: 1; stroke-dasharray: none; stroke-linecap: butt; stroke-dashoffset: 0; stroke-linejoin: miter; stroke-miterlimit: 4; is-custom-font: none; font-file-url: none; fill: rgb(14,35,46); fill-rule: evenodd; opacity: 1; visibility: hidden;" transform=" translate(356.2344, -327.4473)" d="m -341.54 408.06 l 9.657 2.5968 c 3.1353 -13.065 4.0332 -26.335 4.0151 -39.379 c -0.31965 -13.698 -1.4021 -27.072 -1.8971 -40.224 c -11.382 -7.0238 -21.717 -15.653 -30.891 -25.232 c -7.3955 -7.5054 -14.268 -15.881 -22.194 -23.418 c -0.24202 -12.602 -0.53391 -25.324 -0.87561 -38.166 c -0.3417 12.843 -0.63355 25.806 -0.87561 38.89 c 7.4132 7.8551 13.857 16.752 21.157 25.254 c 8.5625 9.7399 18.295 18.351 29.189 25.169 l 0 0.00001 c -0.49495 12.765 -0.56418 25.311 -1.5568 37.521 c -0.68608 12.671 -2.1834 25.212 -5.728 36.989 z" stroke-linecap="round"/>
</g>
		<g transform="matrix(0.6918 0 0 0.6918 -355.284 -63.9004)" id="path4214">
<path style="stroke: none; stroke-width: 1; stroke-dasharray: none; stroke-linecap: butt; stroke-dashoffset: 0; stroke-linejoin: miter; stroke-miterlimit: 4; is-custom-font: none; font-file-url: none; fill: rgb(14,35,46); fill-rule: evenodd; opacity: 1; visibility: hidden;" transform=" translate(323.6846, -287.9221)" d="m -402.03 259.87 l -4.0614 9.1381 c 39.418 16.699 79.131 32.196 118.91 46.966 c 6.0079 -1.0936 11.529 -3.5539 16.371 -6.7259 c 4.593 -3.2001 8.6089 -7.0045 12.28 -10.983 l 0 -0.00001 c 3.4663 -3.7489 6.6392 -7.6586 9.8118 -11.481 c 2.4418 -3.7726 4.7326 -7.4431 7.4407 -10.409 c -25.792 -10.412 -53.305 -13.64 -80.324 -14.213 l -0.00002 0 c -27.553 -0.25123 -54.979 1.8835 -82.461 2.2778 c 27.483 0.39432 55.008 -0.95214 82.406 0.0875 l 0.00002 0 c 26.758 0.68993 53.642 3.3231 78.058 12.221 c -3.4229 2.0501 -6.23 4.5239 -8.9357 6.7725 c -3.3087 3.7582 -6.5328 7.5109 -9.9432 10.986 c 0 0 0 0.00001 -0.00001 0.00001 c -3.6311 3.6928 -7.4441 7.1234 -11.633 9.843 c -3.8848 2.7109 -8.1265 4.7661 -12.478 5.5297 c -39.029 -15.85 -77.598 -32.369 -115.44 -50.009 z" stroke-linecap="round"/>
</g>
		<g transform="matrix(0.6918 0 0 0.6918 -340.2636 -28.8505)" id="path4216">
<path style="stroke: none; stroke-width: 1; stroke-dasharray: none; stroke-linecap: butt; stroke-dashoffset: 0; stroke-linejoin: miter; stroke-miterlimit: 4; is-custom-font: none; font-file-url: none; fill: rgb(14,35,46); fill-rule: evenodd; opacity: 1; visibility: hidden;" transform=" translate(301.9768, -338.5852)" d="m -299.1 384.44 l 8.2634 -5.6316 c -4.5273 -5.902 -8.4096 -12.321 -11.283 -19.198 c -2.6305 -6.2646 -4.4325 -12.97 -5.6132 -19.837 c -2.6341 -15.291 -2.5406 -31.252 -3.3975 -47.043 c -0.85694 15.791 -2.6787 31.544 -1.7105 47.629 l 0 0.00001 c 0.44256 7.2712 1.5773 14.583 3.6891 21.736 c 2.3284 7.8413 5.7879 15.346 10.052 22.344 z" stroke-linecap="round"/>
</g>
		<g transform="matrix(0.6918 0 0 0.6918 -88.3673 52.2487)" id="path4218">
<path style="stroke: none; stroke-width: 1; stroke-dasharray: none; stroke-linecap: butt; stroke-dashoffset: 0; stroke-linejoin: miter; stroke-miterlimit: 4; is-custom-font: none; font-file-url: none; fill: rgb(14,35,46); fill-rule: evenodd; opacity: 1; visibility: hidden;" transform=" translate(-62.1429, -455.8105)" d="m -364.61 442.05 l 9.9936 0.35704 c 0.18691 -5.7959 1.0304 -11.515 2.8436 -16.832 c 1.4656 -4.3571 3.6193 -8.5254 6.2667 -12.387 c 0.00001 0 0.00001 -0.00001 0.00001 -0.00001 c 4.1529 -6.7132 10.361 -12.574 16.01 -19.634 c 88.881 -2.7024 178.12 -4.7806 267.73 -5.1675 l 0.000047 0 c 24.803 25.556 51.08 49.746 78.655 72.446 c 26.604 21.693 54.288 42.097 83.470003 60.09 c 0.00002 0.00001 0.00003 0.00002 0.00004 0.00003 c 64.643 5.9808 129.48 7.6831 194.17 7.8255 c 64.81 0.11763 129.59 -1.3187 194.38 -1.667 c -64.793 -0.34821 -129.6 0.39174 -194.37 -0.42228 c -64.498 -0.78637 -128.94 -3.0782 -192.88 -9.5816 c -28.570003 -18.102 -55.558003 -38.573 -81.416003 -60.304 c -27.812 -23.144 -54.439 -47.8 -79.708 -73.84 l -0.000046 0 c -90.897001 -0.38697 -182.140001 0.93975 -273.710001 2.9137 c -6.3123 6.8951 -13.913 13.463 -20.255 21.839 c -0.00001 0.00001 -0.00002 0.00003 -0.00003 0.00004 c -3.1643 4.4944 -5.7708 9.4302 -7.6213 14.696 c -2.2263 6.4052 -3.3161 13.073 -3.5719 19.668 z" stroke-linecap="round"/>
</g>
		<g transform="matrix(0.6918 0 0 0.6918 131.7571 52.7079)" id="path4220">
<path style="stroke: none; stroke-width: 1; stroke-dasharray: none; stroke-linecap: butt; stroke-dashoffset: 0; stroke-linejoin: miter; stroke-miterlimit: 4; is-custom-font: none; font-file-url: none; fill: rgb(14,35,46); fill-rule: evenodd; opacity: 1; visibility: hidden;" transform=" translate(-380.3013, -456.474)" d="m 403.11 526.89 l 9.9923 0.39302 c 0.18736 -28.057 -8.1922 -55.191 -20.882 -79.387 c -11.958 -22.827 -27.521 -43.405 -44.723 -62.231 c 15.973 19.879 30.099 41.29 40.353 64.347 c 10.842 24.416 17.195 50.969 15.26 76.878 z" stroke-linecap="round"/>
</g>
		<g transform="matrix(0.6918 0 0 0.6918 297.5048 27.3052)" id="path4222">
<path style="stroke: none; stroke-width: 1; stroke-dasharray: none; stroke-linecap: butt; stroke-dashoffset: 0; stroke-linejoin: miter; stroke-miterlimit: 4; is-custom-font: none; font-file-url: none; fill: rgb(14,35,46); fill-rule: evenodd; opacity: 1; visibility: hidden;" transform=" translate(-619.8871, -419.7553)" d="m 812.85 474.22 l 6.7041 -7.4199 c -26.036 -22.964 -55.754 -41.421 -87.266 -55.468 c -31.768 -14.159 -65.236 -23.981 -99.148 -30.801 c -34.902 -7.0205 -70.308 -10.926 -105.74 -13.047 l -0.00002 0 c -35.703 -2.1383 -71.459 -2.4561 -107.18 -2.0301 c 35.721 0.42597 71.441 1.5966 107 4.5794 l 0.00001 0 c 35.284 2.9607 70.428 7.6888 104.86 15.478 c 0 0 0.00001 0.00001 0.00002 0.00001 c 33.448 7.5688 66.249 18.05 97.052 32.685 c 30.539 14.507 59.075 33.194 83.721 56.023 z" stroke-linecap="round"/>
</g>
		<g transform="matrix(0.6918 0 0 0.6918 -227.1936 84.5698)" id="path4224">
<path style="stroke: rgb(73,57,57); stroke-width: 0.4198; stroke-dasharray: none; stroke-linecap: round; stroke-dashoffset: 0; stroke-linejoin: round; stroke-miterlimit: 4; is-custom-font: none; font-file-url: none; fill: rgb(14,35,46); fill-rule: nonzero; opacity: 1; visibility: hidden;" transform=" translate(138.5372, -502.5285)" d="m -135.01 575.65 c -54.038 0 -97.847 -41.188 -97.847 -91.993 c 0 -20.293 6.9946 -39.038 18.833 -54.25 c -4.538 10.604 -7.0555 22.184 -7.0555 34.315 c 0 50.805 43.809 91.993 97.847 91.993 c 32.454 0 61.214 -14.871 79.015 -37.743 c -14.468 33.807 -49.657 57.678 -90.792 57.678 z" stroke-linecap="round"/>
</g>
		<g transform="matrix(0.6918 0 0 0.6918 281.7445 100.633)" id="path4226">
<path style="stroke: rgb(73,57,57); stroke-width: 0.4198; stroke-dasharray: none; stroke-linecap: round; stroke-dashoffset: 0; stroke-linejoin: round; stroke-miterlimit: 4; is-custom-font: none; font-file-url: none; fill: rgb(14,35,46); fill-rule: nonzero; opacity: 1; visibility: hidden;" transform=" translate(-597.1017, -525.7464)" d="m 572.84 584.37 c 52.197 13.986 105.17 -14.46 118.32 -63.534 c 5.2522 -19.601 3.3475 -39.518 -4.1504 -57.275 c 1.6388 11.418 1.0734 23.254 -2.0664 34.972 c -13.149 49.074 -66.126 77.52 -118.32 63.534 c -31.348 -8.3997 -55.28 -30.208 -66.553 -56.908 c 5.2247 36.4 33.037 68.564 72.77 79.211 z" stroke-linecap="round"/>
</g>
		<g transform="matrix(0.6918 0 0 0.6918 -23.5149 -38.272)" id="path4228">
<path style="stroke: none; stroke-width: 1; stroke-dasharray: none; stroke-linecap: butt; stroke-dashoffset: 0; stroke-linejoin: miter; stroke-miterlimit: 4; is-custom-font: none; font-file-url: none; fill: rgb(14,35,46); fill-rule: evenodd; opacity: 1; visibility: hidden;" transform=" translate(-155.8651, -324.967)" d="m 170.57 361.6 l 6.3502 7.725 c 4.3338 -3.7726 8.472 -8.3724 11.215 -14.034 c 2.0321 -4.2372 2.8577 -9.0832 2.1002 -13.845 c -0.84635 -4.6682 -2.9615 -8.7283 -5.5538 -12.123 c -3.0373 -4.0264 -6.6169 -7.4035 -10.299 -10.441 c -8.7233 -7.2142 -18.228 -13.028 -27.483 -19.036 c -9.0077 -5.8631 -18.057 -11.667 -25.682 -19.237 c 6.9631 8.1825 15.626 14.862 24.114 21.442 c 8.7536 6.7992 17.678 13.34 25.377 20.911 l 0.00001 0 c 3.2377 3.1932 6.2352 6.5121 8.4896 10.148 l 0.00001 0.00001 c 1.86 3.0516 3.2619 6.2519 3.4531 9.3493 c 0.2794 2.9993 -0.62993 6.1477 -2.191 8.8672 c -2.2142 3.9364 -5.8788 7.186 -9.8902 10.273 z" stroke-linecap="round"/>
</g>
		<g transform="matrix(0.6918 0 0 0.6918 -54.5144 -64.5567)" id="path4230">
<path style="stroke: none; stroke-width: 1; stroke-dasharray: none; stroke-linecap: butt; stroke-dashoffset: 0; stroke-linejoin: miter; stroke-miterlimit: 4; is-custom-font: none; font-file-url: none; fill: rgb(14,35,46); fill-rule: evenodd; opacity: 1; visibility: hidden;" transform=" translate(-111.0606, -286.9723)" d="m 3.9289 283.69 l 0.22347 9.9975 c 71.614 -3.2691 142.6 -11.413 214.04 -13.08 c -71.441 -1.6667 -143.03 3.1586 -214.26 3.0825 z" stroke-linecap="round"/>
</g>
		<g transform="matrix(0.6918 0 0 0.6918 -108.4749 -39.3698)" id="path4232">
<path style="stroke: none; stroke-width: 1; stroke-dasharray: none; stroke-linecap: butt; stroke-dashoffset: 0; stroke-linejoin: miter; stroke-miterlimit: 4; is-custom-font: none; font-file-url: none; fill: rgb(14,35,46); fill-rule: evenodd; opacity: 1; visibility: hidden;" transform=" translate(-33.0604, -323.3801)" d="m 51.617 364.77 l 9.904 1.3821 c 0.78457 -8.1068 0.86302 -16.469 -0.55292 -24.703 c -1.3633 -7.829 -4.224 -15.325 -8.4017 -21.952 l -0.000001 0 c -4.9244 -7.7649 -11.363 -14.23 -18.307 -19.789 l -0.000004 0 c -9.387 -7.5238 -19.695 -13.602 -30.218 -19.1 c 9.9692 6.4483 19.62 13.428 28.037 21.578 l 0.000002 0 c 6.2097 6.0204 11.737 12.705 15.504 20.158 c 3.2006 6.2927 5.0897 13.184 5.6402 20.109 c 0.60672 7.3596 -0.21587 14.85 -1.6046 22.316 z" stroke-linecap="round"/>
</g>
		<g transform="matrix(0.6918 0 0 0.6918 383.0879 93.8375)" id="path4234">
<path style="stroke: none; stroke-width: 1; stroke-dasharray: none; stroke-linecap: butt; stroke-dashoffset: 0; stroke-linejoin: miter; stroke-miterlimit: 4; is-custom-font: none; font-file-url: none; fill: rgb(14,35,46); fill-rule: evenodd; opacity: 1; visibility: hidden;" transform=" translate(-743.587, -515.9234)" d="m 819.19 468.4 l -9.283 3.7183 c 5.1684 12.231 9.7063 24.658 12.633 37.43 c 3.7926 13.733 5.6184 28.072 3.3512 41.944 l 0 0.00001 c -27.166 5.7882 -55.65 7.1493 -84.304 7.9212 l -0.00001 0 c -28.983 0.9867 -58.127 1.0679 -87.01 4.0332 c 28.976 -1.8495 57.99 -0.80332 87.06 -0.67466 l 0.00001 0 c 29.167 -0.0827 58.81 -1.2144 88.231 -7.3397 l 0 -0.00001 c 3.6502 -15.607 3.2996 -31.915 0.93666 -47.612 c -2.58 -13.555 -6.7822 -26.683 -11.615 -39.42 z" stroke-linecap="round"/>
</g>
		<g transform="matrix(0.6918 0 0 0.6918 12.7563 121.217)" id="path4236">
<path style="stroke: none; stroke-width: 1; stroke-dasharray: none; stroke-linecap: butt; stroke-dashoffset: 0; stroke-linejoin: miter; stroke-miterlimit: 4; is-custom-font: none; font-file-url: none; fill: rgb(14,35,46); fill-rule: evenodd; opacity: 1; visibility: hidden;" transform=" translate(-208.3045, -555.4971)" d="m 496.57 564.39 l 0.84946 -9.9639 c -95.908 -7.34 -192.06 -8.4077 -288.06 -7.5894 c -96.761 0.82343 -193.44 3.6535 -290.17 4.4901 c 96.726 0.83662 193.48 -0.32046 290.17 0.52962 c 95.934 0.84474 191.88 3.5694 287.21 12.534 z" stroke-linecap="round"/>
</g>
		<g transform="matrix(0.6918 0 0 0.6918 -379.9449 105.3455)" id="path4238">
<path style="stroke: none; stroke-width: 1; stroke-dasharray: none; stroke-linecap: butt; stroke-dashoffset: 0; stroke-linejoin: miter; stroke-miterlimit: 4; is-custom-font: none; font-file-url: none; fill: rgb(14,35,46); fill-rule: evenodd; opacity: 1; visibility: hidden;" transform=" translate(359.3284, -532.5557)" d="m -234.94 540.13 l 1.1616 -9.9323 c -83.681 -8.089 -167.5 -4.7817 -251.1 -3.1151 c 83.601 1.6667 167.55 1.715 249.94 13.047 z" stroke-linecap="round"/>
</g>
		<g transform="matrix(0.6918 0 0 0.6918 -57.1628 156.8059)" id="path4240">
<path style="stroke: none; stroke-width: 1; stroke-dasharray: none; stroke-linecap: butt; stroke-dashoffset: 0; stroke-linejoin: miter; stroke-miterlimit: 4; is-custom-font: none; font-file-url: none; fill: rgb(14,35,46); fill-rule: evenodd; opacity: 1; visibility: hidden;" transform=" translate(-107.2545, -606.9388)" d="m 694.63 620.96 l 0.70448 -9.9752 c -195.48 -12.96 -391.38 -17.15 -587.18 -17.93 c -196.35 -0.77827 -392.66 1.8842 -588.98 2.7187 c 196.32 0.8345 392.66 -0.15884 588.94 2.2882 c 195.73 2.4407 391.45 8.2899 586.53 22.902 z" stroke-linecap="round"/>
</g>
		<g transform="matrix(0.6918 0 0 0.6918 -333.6999 86.4845)" id="path4242">
<path style="stroke: none; stroke-width: 1; stroke-dasharray: none; stroke-linecap: butt; stroke-dashoffset: 0; stroke-linejoin: miter; stroke-miterlimit: 4; is-custom-font: none; font-file-url: none; fill: rgb(14,35,46); fill-rule: evenodd; opacity: 1; visibility: hidden;" transform=" translate(292.4868, -505.2953)" d="m -227.2 556.24 l 1.8442 -9.8285 c -27.114 -4.2031 -53.149 -16.025 -75.597 -32.756 c -22.204 -16.544 -41.206 -37.406 -58.665 -59.305 c 16.134 22.893 33.922 44.938 55.576 63.197 c 21.959 18.507 48.238 32.44 76.842 38.692 z" stroke-linecap="round"/>
</g>
		<g transform="matrix(0.6918 0 0 0.6918 -138.5598 35.5449)" id="path4244">
<path style="stroke: none; stroke-width: 1; stroke-dasharray: none; stroke-linecap: butt; stroke-dashoffset: 0; stroke-linejoin: miter; stroke-miterlimit: 4; is-custom-font: none; font-file-url: none; fill: rgb(14,35,46); fill-rule: evenodd; opacity: 1; visibility: hidden;" transform=" translate(10.4252, -431.6648)" d="m -43.8 388.78 l -1.2942 9.9159 c 8.9446 0.75224 17.828 3.3059 25.558 7.9549 c 7.194 4.2823 13.458 10.366 18.733 17.275 c 5.5238 7.2434 10.001 15.395 13.958 23.815 l 0.000002 0 c 4.0959 8.7218 7.6201 17.759 11.089 26.809 c -2.6552 -9.3222 -5.3671 -18.64 -8.713 -27.799 c -0.000001 0 -0.000001 -0.00001 -0.000002 -0.00001 c -3.2277 -8.8421 -7.0602 -17.57 -12.174 -25.704 c -4.8937 -7.7911 -11.087 -14.973 -18.777 -20.587 c -8.3454 -6.04 -18.182 -9.9338 -28.38 -11.68 z" stroke-linecap="round"/>
</g>
		<g transform="matrix(0.6918 0 0 0.6918 -82.7526 35.5633)" id="path4246">
<path style="stroke: none; stroke-width: 1; stroke-dasharray: none; stroke-linecap: butt; stroke-dashoffset: 0; stroke-linejoin: miter; stroke-miterlimit: 4; is-custom-font: none; font-file-url: none; fill: rgb(14,35,46); fill-rule: evenodd; opacity: 1; visibility: hidden;" transform=" translate(-70.2416, -431.6913)" d="m 17.1 392.87 l -1.8759 9.8225 c 10.95 1.6153 21.708 5.574 31.95 10.72 l 0.000003 0 c 10.428 5.2504 20.32 11.772 29.872 18.827 l 0.000006 0 c 9.0157 6.6616 17.713 13.843 26.402001 21.053 c 7.116 5.9062 14.201 11.948 21.811 17.22 c -7.1914 -5.8294 -13.748 -12.342 -20.415 -18.778 c -8.123801 -7.8463 -16.285001 -15.69 -24.898001 -23.121 c -0.000002 -0.00001 -0.000004 -0.00001 -0.000005 -0.00001 c -9.1141 -7.8678 -18.734 -15.302 -29.213 -21.626 l -0.000006 0 c -10.295 -6.2231 -21.525 -11.328 -33.632 -14.116 z" stroke-linecap="round"/>
</g>
		<g transform="matrix(0.6918 0 0 0.6918 281.7445 100.633)" id="path4248">
<path style="stroke: rgb(73,57,57); stroke-width: 0.4198; stroke-dasharray: none; stroke-linecap: round; stroke-dashoffset: 0; stroke-linejoin: round; stroke-miterlimit: 4; is-custom-font: none; font-file-url: none; fill: rgb(14,35,46); fill-rule: nonzero; opacity: 1; visibility: hidden;" transform=" translate(-597.1017, -525.7464)" d="m 572.84 584.37 c 52.197 13.986 105.17 -14.46 118.32 -63.534 c 5.2522 -19.601 3.3475 -39.518 -4.1504 -57.275 c 1.6388 11.418 1.0734 23.254 -2.0664 34.972 c -13.149 49.074 -66.126 77.52 -118.32 63.534 c -31.348 -8.3997 -55.28 -30.208 -66.553 -56.908 c 5.2247 36.4 33.037 68.564 72.77 79.211 z" stroke-linecap="round"/>
</g>
		<g transform="matrix(1.0667 0 0 1.0667 -424.0575 255.1623)" id="ellipse4249">
<ellipse style="stroke: rgb(254,254,254); stroke-width: 3.645; stroke-dasharray: none; stroke-linecap: round; stroke-dashoffset: 0; stroke-linejoin: miter; stroke-miterlimit: 4; is-custom-font: none; font-file-url: none; fill: rgb(255,255,255); fill-rule: nonzero; opacity: 1;" cx="0" cy="0" rx="51.198471" ry="47.363377"/>
</g>
		<g transform="matrix(-1.0667 0 0 1.0667 162.8944 14.1087)" id="path4239">
<path style="stroke: none; stroke-width: 1; stroke-dasharray: none; stroke-linecap: butt; stroke-dashoffset: 0; stroke-linejoin: miter; stroke-miterlimit: 4; is-custom-font: none; font-file-url: none; fill: rgb(0,0,0); fill-rule: evenodd; opacity: 1;" transform=" translate(-441.365, 294.8173)" d="m 240.41656 -198.51173 c -0.32343 0.50111 -17.06287 -7.84825 -42.56454 -27.90655 c -3.77835 -2.96426 -8.10847 -6.48064 -11.96616 -10.62806 c -3.53327 -3.78504 -6.89388 -8.46009 -9.01418 -14.0359 c -2.77434 -7.49336 -3.03822 -16.19609 -0.5083 -24.60049 c 2.29515 -7.60393 6.54959 -14.64182 12.08627 -20.88345 c 5.16087 -5.8386 11.06357 -10.82156 17.37635 -15.70641 c 0 0 0.00002 -0.00002 0.00002 -0.00002 c 35.70828 -27.73087 82.66965 -52.5554 138.76671 -64.69726 c 13.57441 -2.92396 27.47026 -5.44736 41.65967 -7.52138 c 31.49789 -4.60394 62.11161 -6.65367 91.40543 -6.6528 c 46.50076 0.13972 88.38239 5.33248 124.17402 12.58385 c 65.79134 45.44712 107.16093 75.08844 106.26594 76.41156 c -0.89429 1.32209 -43.70782 -25.97717 -109.18792 -69.32686 c -35.26027 -6.23873 -76.06212 -10.51973 -121.21436 -10.02191 c -28.85583 0.22802 -58.98118 2.36748 -89.99357 6.90033 c -13.9706 2.04199 -27.65548 4.50175 -41.03129 7.33355 c -54.51035 11.59337 -100.47067 35.19677 -135.84477 61.5609 c 0 0 -0.00002 0.00001 -0.00002 0.00001 c -6.24128 4.66895 -11.85693 9.16177 -16.60635 14.33097 c -5.0546 5.52262 -8.9532 11.48015 -11.00289 17.82376 c -2.25493 6.95557 -2.34178 14.17863 -0.25256 20.28723 c 1.514 4.58778 4.30669 8.73449 7.32174 12.28855 c 3.30824 3.88352 7.31299 7.41946 10.89054 10.52581 c 24.21441 20.97157 39.9486 30.83703 39.24022 31.93457 z" stroke-linecap="round"/>
</g>
		<g transform="matrix(-1.0667 0 0 1.0667 96.9103 115.1543)" id="path4277">
<path style="stroke: none; stroke-width: 1; stroke-dasharray: none; stroke-linecap: butt; stroke-dashoffset: 0; stroke-linejoin: miter; stroke-miterlimit: 4; is-custom-font: none; font-file-url: none; fill: rgb(0,0,0); fill-rule: evenodd; opacity: 1;" transform=" translate(-503.2252, 200.09)" d="m 241.41622 -199.02397 c -0.0112 -2.75998 117.27008 -5.47753 261.78866 -6.06596 c 144.51857 -0.58843 261.81813 1.17398 261.82937 3.93396 c 0.0112 2.75998 -117.27008 5.47753 -261.78866 6.06596 c -144.51857 0.58843 -261.81813 -1.17398 -261.82937 -3.93396 z" stroke-linecap="round"/>
</g>
		<g transform="matrix(-1.0661 -0.0347 -0.0347 1.0661 286.8914 113.7388)" id="path4259">
<path style="stroke: rgb(255,255,255); stroke-width: 6; stroke-dasharray: none; stroke-linecap: round; stroke-dashoffset: 0; stroke-linejoin: miter; stroke-miterlimit: 4; is-custom-font: none; font-file-url: none; fill: rgb(0,0,0); fill-rule: nonzero; opacity: 1;" transform=" translate(-315.3818, 206.5996)" d="m 242.65039 -240.33398 c 0 37.34262 32.69497 67.46875 72.73242 67.46875 c 40.03746 0 72.73047 -30.12613 72.73047 -67.46875" stroke-linecap="round"/>
</g>
		<g transform="matrix(-1.0661 -0.0347 -0.0347 1.0661 286.1678 101.5029)" id="path4247">
<path style="stroke: none; stroke-width: 5; stroke-dasharray: none; stroke-linecap: round; stroke-dashoffset: 0; stroke-linejoin: miter; stroke-miterlimit: 4; is-custom-font: none; font-file-url: none; fill: rgb(254,254,254); fill-rule: nonzero; opacity: 1;" transform=" translate(-316.434, 218.0429)" d="m 365.81021 -240.81276 c 0 25.09336 -22.01055 45.53972 -49.37552 45.53972 c -27.36496 0 -49.37693 -20.44636 -49.37693 -45.53972" stroke-linecap="round"/>
</g>
		<g transform="matrix(-1.0667 0 0 1.0667 135.3859 -0.7229)" id="path4271">
<path style="stroke: none; stroke-width: 1; stroke-dasharray: none; stroke-linecap: butt; stroke-dashoffset: 0; stroke-linejoin: miter; stroke-miterlimit: 4; is-custom-font: none; font-file-url: none; fill: rgb(0,0,0); fill-rule: evenodd; opacity: 1;" transform=" translate(-467.1552, 308.7246)" d="m 231.99935 -316.35268 c 0.0895 -2.75855 105.51191 -1.57998 235.31791 2.63073 c 129.80601 4.21071 235.08318 9.86692 234.9937 12.62547 c -0.0895 2.75855 -105.51191 1.57998 -235.31791 -2.63073 c -129.80601 -4.21071 -235.08318 -9.86692 -234.9937 -12.62547 z" stroke-linecap="round"/>
</g>
		<g transform="matrix(-1.0667 0 0 1.0667 -239.3321 53.258)" id="path4283">
<path style="stroke: none; stroke-width: 1; stroke-dasharray: none; stroke-linecap: butt; stroke-dashoffset: 0; stroke-linejoin: miter; stroke-miterlimit: 4; is-custom-font: none; font-file-url: none; fill: rgb(0,0,0); fill-rule: evenodd; opacity: 1;" transform=" translate(-818.4567, 258.1159)" d="m 691.26338 -318.45698 c 0.0385 -1.35906 37.16947 -3.48884 92.7125 4.23514 c 27.09973 3.74915 60.87887 10.16829 92.9189 24.34597 c 3.18727 1.4197 6.36328 2.91899 9.52378 4.49869 c 16.63631 8.31529 31.6288 18.24961 44.82497 29.12257 c 10.24149 10.63543 14.94699 24.80777 14.35726 37.92172 c -0.82972 5.72591 -2.43334 11.222 -4.64363 16.29843 c -29.12788 6.1003 -57.81378 5.89193 -72.93237 5.33969 c -14.77274 -0.70011 -23.14733 -1.4993 -23.14733 -2.3476 c 0 -0.8483 8.37459 -1.64749 23.14733 -2.3476 c 13.7414 -0.51723 42.85091 -1.04662 68.05589 -6.23399 c 0.82613 -3.48372 1.07283 -7.23471 0.61713 -11.05749 c 0.33858 -10.59399 -3.72333 -22.18763 -11.94652 -30.459 c -12.71039 -10.1717 -27.03668 -19.4896 -42.86239 -27.35006 c -3.00707 -1.49358 -6.02701 -2.91397 -9.05614 -4.26204 c -30.53031 -13.68054 -63.59014 -20.52411 -90.15542 -25.10515 c -54.53308 -9.36381 -91.47575 -10.41877 -91.41396 -12.59928 z" stroke-linecap="round"/>
</g>
		<g transform="matrix(-1.0666 0.0167 0.0167 1.0666 -215.5336 113.6136)" id="path4267">
<path style="stroke: rgb(255,255,255); stroke-width: 6; stroke-dasharray: none; stroke-linecap: round; stroke-dashoffset: 0; stroke-linejoin: miter; stroke-miterlimit: 4; is-custom-font: none; font-file-url: none; fill: rgb(0,0,0); fill-rule: nonzero; opacity: 1;" transform=" translate(-315.3818, 206.5996)" d="m 242.65039 -240.33398 c 0 37.34262 32.69497 67.46875 72.73242 67.46875 c 40.03746 0 72.73047 -30.12613 72.73047 -67.46875" stroke-linecap="round"/>
</g>
		<g transform="matrix(-1.0666 0.0167 0.0167 1.0666 -216.846 101.4268)" id="path4269">
<path style="stroke: none; stroke-width: 5; stroke-dasharray: none; stroke-linecap: round; stroke-dashoffset: 0; stroke-linejoin: miter; stroke-miterlimit: 4; is-custom-font: none; font-file-url: none; fill: rgb(254,254,254); fill-rule: nonzero; opacity: 1;" transform=" translate(-316.434, 218.0429)" d="m 365.81021 -240.81276 c 0 25.09336 -22.01055 45.53972 -49.37552 45.53972 c -27.36496 0 -49.37693 -20.44636 -49.37693 -45.53972" stroke-linecap="round"/>
</g>
</g>
</g>
</svg>